<?xml version="1.0" encoding="UTF-8"?>
<!DOCTYPE svg PUBLIC "-//W3C//DTD SVG 1.1//EN" "http://www.w3.org/Graphics/SVG/1.1/DTD/svg11.dtd">
<!-- Creator: CorelDRAW X7 -->
<svg xmlns="http://www.w3.org/2000/svg" xml:space="preserve" width="125.942mm" height="21.5194mm" version="1.1" style="shape-rendering:geometricPrecision; text-rendering:geometricPrecision; image-rendering:optimizeQuality; fill-rule:evenodd; clip-rule:evenodd"
viewBox="0 0 12594 2152"
 xmlns:xlink="http://www.w3.org/1999/xlink">
 <defs>
  <style type="text/css">
   <![CDATA[
    .fil2 {fill:#2B2A29;fill-rule:nonzero}
    .fil1 {fill:#F59D0E;fill-rule:nonzero}
    .fil0 {fill:#373435;fill-rule:nonzero}
   ]]>
  </style>
 </defs>
 <g id="Ebene_x0020_1">
  <metadata id="CorelCorpID_0Corel-Layer"/>
  <polygon class="fil0" points="0,2141 436,2141 436,48 0,48 "/>
  <polygon class="fil0" points="1915,2140 2352,2140 2352,48 1915,48 "/>
  <polygon class="fil0" points="1327,141 2199,141 2199,48 1327,48 "/>
  <polygon class="fil0" points="1320,2140 1410,2140 1410,48 1320,48 "/>
  <polygon class="fil0" points="405,1138 1345,1138 1345,1045 405,1045 "/>
  <polygon class="fil0" points="2800,141 3441,141 3441,48 2800,48 "/>
  <polygon class="fil0" points="2794,2140 2885,2140 2885,48 2794,48 "/>
  <polygon class="fil0" points="4013,48 4477,48 3250,2141 2792,2141 "/>
  <polygon class="fil1" points="4981,48 5445,48 4218,2141 3761,2141 "/>
  <polygon class="fil2" points="5883,46 5930,46 5930,198 6116,198 6116,46 6163,46 6163,399 6116,399 6116,238 5930,238 5930,399 5883,399 "/>
  <path class="fil2" d="M6399 368c86,0 122,-74 122,-145 0,-71 -36,-146 -122,-146 -86,0 -122,75 -122,146 0,71 36,145 122,145zm0 -330c112,0 169,89 169,185 0,96 -57,184 -169,184 -112,0 -169,-88 -169,-184 0,-96 57,-185 169,-185z"/>
  <path class="fil2" d="M6883 152c-10,-49 -50,-75 -99,-75 -84,0 -119,70 -119,143 0,81 35,148 120,148 62,0 97,-44 102,-102l47 0c-9,88 -64,141 -153,141 -110,0 -163,-81 -163,-183 0,-103 58,-186 167,-186 73,0 134,39 145,114l-47 0z"/>
  <polygon class="fil2" points="7002,46 7048,46 7048,198 7234,198 7234,46 7281,46 7281,399 7234,399 7234,238 7048,238 7048,399 7002,399 "/>
  <path class="fil2" d="M7572 150c-5,-51 -39,-73 -87,-73 -40,0 -79,15 -79,61 0,43 56,50 113,62 56,13 112,33 112,102 0,75 -73,105 -137,105 -80,0 -146,-38 -146,-124l44 0c0,59 50,85 103,85 42,0 89,-13 89,-64 0,-49 -56,-57 -112,-69 -57,-13 -113,-29 -113,-94 0,-72 63,-103 128,-103 72,0 127,34 130,112l-45 0z"/>
  <path class="fil2" d="M7946 152c-10,-49 -50,-75 -99,-75 -84,0 -120,70 -120,143 0,81 36,148 120,148 62,0 97,-44 102,-102l47 0c-9,88 -64,141 -153,141 -110,0 -163,-81 -163,-183 0,-103 58,-186 167,-186 74,0 135,39 145,114l-46 0z"/>
  <polygon class="fil2" points="8064,46 8111,46 8111,198 8297,198 8297,46 8344,46 8344,399 8297,399 8297,238 8111,238 8111,399 8064,399 "/>
  <path class="fil2" d="M8713 272c0,89 -51,135 -139,135 -91,0 -145,-42 -145,-135l0 -226 47 0 0 226c0,62 35,96 98,96 59,0 92,-34 92,-96l0 -226 47 0 0 226z"/>
  <polygon class="fil2" points="8797,46 8844,46 8844,360 9031,360 9031,399 8797,399 "/>
  <polygon class="fil2" points="9081,46 9325,46 9325,86 9128,86 9128,198 9312,198 9312,238 9128,238 9128,360 9326,360 9326,399 9081,399 "/>
  <polygon class="fil2" points="9540,46 9771,46 9771,86 9587,86 9587,198 9749,198 9749,238 9587,238 9587,399 9540,399 "/>
  <path class="fil2" d="M10042 -32l0 51 -45 0 0 -51 45 0zm-93 0l-45 0 0 51 45 0 0 -51zm166 304c0,89 -51,135 -139,135 -91,0 -145,-42 -145,-135l0 -226 47 0 0 226c0,62 36,96 98,96 59,0 92,-34 92,-96l0 -226 47 0 0 226z"/>
  <path class="fil2" d="M10344 209c44,0 82,-12 82,-63 0,-35 -19,-60 -63,-60l-117 0 0 123 98 0zm-145 -163l166 0c67,0 108,36 108,93 0,42 -19,77 -62,89l0 1c41,8 50,38 53,73 3,34 1,73 21,97l-52 0c-14,-14 -6,-52 -13,-87 -5,-34 -14,-64 -59,-64l-115 0 0 151 -47 0 0 -353z"/>
  <polygon class="fil2" points="5963,668 5846,668 5846,629 6128,629 6128,668 6010,668 6010,981 5963,981 "/>
  <polygon class="fil2" points="6177,629 6420,629 6420,668 6224,668 6224,780 6407,780 6407,820 6224,820 6224,942 6422,942 6422,981 6177,981 "/>
  <path class="fil2" d="M6736 735c-9,-50 -49,-75 -98,-75 -84,0 -120,69 -120,142 0,81 36,148 120,148 62,0 97,-43 102,-102l47 0c-9,88 -64,142 -153,142 -110,0 -163,-81 -163,-184 0,-102 58,-186 167,-186 74,0 135,40 145,115l-47 0z"/>
  <polygon class="fil2" points="6855,629 6902,629 6902,780 7088,780 7088,629 7135,629 7135,981 7088,981 7088,820 6902,820 6902,981 6855,981 "/>
  <polygon class="fil2" points="7221,629 7271,629 7457,915 7458,915 7458,629 7502,629 7502,981 7451,981 7266,698 7265,698 7265,981 7221,981 "/>
  <polygon class="fil2" points="7590,981 7637,981 7637,629 7590,629 "/>
  <polygon class="fil2" points="7726,629 7773,629 7773,804 7951,629 8012,629 7863,771 8018,981 7959,981 7831,803 7773,858 7773,981 7726,981 "/>
  <path class="fil2" d="M8493 854c0,89 -51,136 -139,136 -91,0 -144,-42 -144,-136l0 -225 46 0 0 225c0,62 36,96 98,96 60,0 92,-34 92,-96l0 -225 47 0 0 225z"/>
  <polygon class="fil2" points="8578,629 8627,629 8813,915 8814,915 8814,629 8859,629 8859,981 8807,981 8623,698 8622,698 8622,981 8578,981 "/>
  <path class="fil2" d="M8991 942l78 0c33,0 119,-9 119,-139 0,-84 -31,-135 -118,-135l-79 0 0 274zm-47 -313l122 0c108,0 169,54 169,168 0,118 -52,184 -169,184l-122 0 0 -352z"/>
  <polygon class="fil2" points="9767,981 9718,981 9637,685 9637,685 9555,981 9506,981 9416,629 9464,629 9533,922 9534,922 9613,629 9664,629 9742,922 9743,922 9814,629 9861,629 "/>
  <polygon class="fil2" points="9917,981 9964,981 9964,629 9917,629 "/>
  <path class="fil2" d="M10198 791c43,0 81,-11 81,-63 0,-34 -19,-60 -63,-60l-116 0 0 123 98 0zm-145 -162l166 0c66,0 107,36 107,92 0,42 -19,78 -61,89l0 1c41,8 49,38 53,73 3,35 1,73 20,97l-52 0c-13,-14 -6,-52 -13,-87 -5,-34 -13,-63 -59,-63l-114 0 0 150 -47 0 0 -352z"/>
  <polygon class="fil2" points="10474,668 10356,668 10356,629 10639,629 10639,668 10521,668 10521,981 10474,981 "/>
  <path class="fil2" d="M10891 732c-5,-51 -38,-72 -87,-72 -39,0 -79,14 -79,60 0,43 56,50 113,63 56,13 113,32 113,102 0,75 -74,105 -138,105 -79,0 -146,-39 -146,-125l45 0c0,60 49,85 102,85 43,0 90,-13 90,-64 0,-48 -56,-57 -113,-69 -56,-13 -113,-29 -113,-94 0,-71 64,-103 128,-103 72,0 127,34 130,112l-45 0z"/>
  <path class="fil2" d="M11265 735c-10,-50 -50,-75 -99,-75 -84,0 -119,69 -119,142 0,81 35,148 120,148 61,0 97,-43 101,-102l47 0c-9,88 -63,142 -152,142 -110,0 -163,-81 -163,-184 0,-102 58,-186 167,-186 73,0 134,40 145,115l-47 0z"/>
  <polygon class="fil2" points="11384,629 11431,629 11431,780 11617,780 11617,629 11663,629 11663,981 11617,981 11617,820 11431,820 11431,981 11384,981 "/>
  <path class="fil2" d="M11811 836l120 0 -59 -165 -1 0 -60 165zm35 -207l52 0 138 352 -52 0 -39 -106 -149 0 -39 106 -49 0 138 -352z"/>
  <polygon class="fil2" points="12080,629 12311,629 12311,668 12127,668 12127,780 12289,780 12289,820 12127,820 12127,981 12080,981 "/>
  <polygon class="fil2" points="12454,668 12336,668 12336,629 12618,629 12618,668 12501,668 12501,981 12454,981 "/>
  <path class="fil1" d="M5930 1524l78 0c33,0 119,-9 119,-139 0,-84 -31,-135 -118,-135l-79 0 0 274zm-47 -313l121 0c109,0 170,54 170,168 0,118 -52,185 -170,185l-121 0 0 -353z"/>
  <path class="fil1" d="M6385 1373c44,0 82,-11 82,-62 0,-35 -19,-61 -63,-61l-117 0 0 123 98 0zm-145 -162l167 0c66,0 107,36 107,92 0,43 -19,78 -62,90l0 1c41,8 50,38 53,72 3,35 1,73 21,98l-52 0c-14,-15 -6,-53 -13,-87 -5,-35 -13,-64 -59,-64l-115 0 0 151 -47 0 0 -353z"/>
  <polygon class="fil1" points="6589,1211 6832,1211 6832,1250 6636,1250 6636,1363 6819,1363 6819,1402 6636,1402 6636,1524 6834,1524 6834,1564 6589,1564 "/>
  <path class="fil1" d="M7104 1314c-5,-50 -39,-72 -87,-72 -40,0 -79,14 -79,60 0,44 56,50 113,63 56,13 113,33 113,102 0,75 -74,105 -138,105 -79,0 -146,-38 -146,-124l44 0c0,59 50,85 103,85 43,0 90,-14 90,-65 0,-48 -57,-57 -113,-69 -56,-12 -113,-29 -113,-93 0,-72 64,-104 128,-104 72,0 127,35 130,112l-45 0z"/>
  <path class="fil1" d="M7277 1524l78 0c32,0 118,-9 118,-139 0,-84 -31,-135 -117,-135l-79 0 0 274zm-47 -313l121 0c108,0 169,54 169,168 0,118 -52,185 -169,185l-121 0 0 -353z"/>
  <polygon class="fil1" points="7587,1211 7830,1211 7830,1250 7634,1250 7634,1363 7817,1363 7817,1402 7634,1402 7634,1524 7832,1524 7832,1564 7587,1564 "/>
  <polygon class="fil1" points="7898,1211 7948,1211 8134,1497 8135,1497 8135,1211 8179,1211 8179,1564 8128,1564 7943,1281 7942,1281 7942,1564 7898,1564 "/>
  <path class="fil2" d="M6096 2045c0,70 -40,107 -109,107 -71,0 -113,-33 -113,-107l0 -177 36 0 0 177c0,49 28,76 77,76 47,0 72,-27 72,-76l0 -177 37 0 0 177z"/>
  <polygon class="fil2" points="6163,1868 6202,1868 6348,2093 6349,2093 6349,1868 6383,1868 6383,2145 6343,2145 6198,1923 6198,1923 6198,2145 6163,2145 "/>
  <polygon class="fil2" points="6453,2145 6489,2145 6489,1868 6453,1868 "/>
  <polygon class="fil2" points="6668,2145 6626,2145 6529,1868 6569,1868 6648,2108 6648,2108 6728,1868 6767,1868 "/>
  <polygon class="fil2" points="6804,1868 6995,1868 6995,1899 6841,1899 6841,1987 6985,1987 6985,2018 6841,2018 6841,2114 6996,2114 6996,2145 6804,2145 "/>
  <path class="fil2" d="M7162 1996c35,0 64,-9 64,-49 0,-28 -14,-48 -49,-48l-92 0 0 97 77 0zm-113 -128l130 0c52,0 84,29 84,73 0,33 -15,61 -48,70l0 1c32,6 39,30 42,57 2,27 0,57 16,76l-41 0c-11,-11 -5,-41 -10,-68 -4,-27 -11,-50 -47,-50l-90 0 0 118 -36 0 0 -277z"/>
  <path class="fil2" d="M7482 1949c-4,-39 -30,-56 -68,-56 -31,0 -62,11 -62,47 0,34 44,39 89,49 44,10 88,26 88,80 0,59 -58,83 -108,83 -62,0 -115,-30 -115,-98l35 0c0,47 39,67 81,67 33,0 70,-11 70,-51 0,-38 -44,-44 -88,-54 -45,-10 -89,-22 -89,-73 0,-57 50,-81 100,-81 57,0 100,26 102,87l-35 0z"/>
  <polygon class="fil2" points="7583,2145 7620,2145 7620,1868 7583,1868 "/>
  <polygon class="fil2" points="7753,1899 7661,1899 7661,1868 7882,1868 7882,1899 7790,1899 7790,2145 7753,2145 "/>
  <polygon class="fil2" points="8035,2032 8035,2145 7998,2145 7998,2032 7891,1868 7935,1868 8018,2000 8099,1868 8141,1868 "/>
  <path class="fil2" d="M8413 2121c67,0 95,-58 95,-114 0,-56 -28,-114 -95,-114 -68,0 -96,58 -96,114 0,56 28,114 96,114zm0 -259c88,0 132,70 132,145 0,75 -44,145 -132,145 -89,0 -133,-70 -133,-145 0,-75 44,-145 133,-145z"/>
  <polygon class="fil2" points="8598,1868 8780,1868 8780,1899 8635,1899 8635,1987 8762,1987 8762,2018 8635,2018 8635,2145 8598,2145 "/>
  <path class="fil2" d="M8992 2031l94 0 -47 -129 0 0 -47 129zm27 -163l41 0 108 277 -41 0 -30 -83 -117 0 -31 83 -38 0 108 -277z"/>
  <path class="fil2" d="M9240 2001l72 0c42,0 61,-18 61,-51 0,-33 -19,-51 -61,-51l-72 0 0 102zm-37 -133l122 0c55,0 85,31 85,82 0,51 -30,82 -85,82l-85 0 0 113 -37 0 0 -277z"/>
  <path class="fil2" d="M9499 2001l72 0c42,0 61,-18 61,-51 0,-33 -19,-51 -61,-51l-72 0 0 102zm-37 -133l122 0c55,0 85,31 85,82 0,51 -30,82 -85,82l-85 0 0 113 -37 0 0 -277z"/>
  <polygon class="fil2" points="9721,1868 9758,1868 9758,2114 9905,2114 9905,2145 9721,2145 "/>
  <polygon class="fil2" points="9947,2145 9983,2145 9983,1868 9947,1868 "/>
  <polygon class="fil2" points="10053,1868 10245,1868 10245,1899 10090,1899 10090,1987 10234,1987 10234,2018 10090,2018 10090,2114 10246,2114 10246,2145 10053,2145 "/>
  <path class="fil2" d="M10335 2114l61 0c25,0 93,-7 93,-109 0,-66 -24,-106 -92,-106l-62 0 0 215zm-37 -246l95 0c85,0 133,43 133,132 0,93 -41,145 -133,145l-95 0 0 -277z"/>
  <path class="fil2" d="M10854 1949c-4,-39 -30,-56 -68,-56 -32,0 -63,11 -63,47 0,34 45,39 89,49 45,10 89,26 89,80 0,59 -58,83 -109,83 -62,0 -114,-30 -114,-98l35 0c0,47 39,67 81,67 33,0 70,-11 70,-51 0,-38 -44,-44 -89,-54 -44,-10 -88,-22 -88,-73 0,-57 50,-81 100,-81 57,0 100,26 102,87l-35 0z"/>
  <path class="fil2" d="M11148 1952c-8,-40 -39,-59 -78,-59 -66,0 -94,54 -94,112 0,63 28,116 95,116 48,0 76,-34 80,-80l37 0c-7,69 -50,111 -120,111 -87,0 -128,-64 -128,-144 0,-81 45,-146 131,-146 58,0 105,31 114,90l-37 0z"/>
  <polygon class="fil2" points="11243,2145 11279,2145 11279,1868 11243,1868 "/>
  <polygon class="fil2" points="11349,1868 11541,1868 11541,1899 11386,1899 11386,1987 11530,1987 11530,2018 11386,2018 11386,2114 11542,2114 11542,2145 11349,2145 "/>
  <polygon class="fil2" points="11594,1868 11633,1868 11779,2093 11780,2093 11780,1868 11815,1868 11815,2145 11774,2145 11629,1923 11629,1923 11629,2145 11594,2145 "/>
  <path class="fil2" d="M12077 1952c-8,-40 -39,-59 -78,-59 -66,0 -94,54 -94,112 0,63 28,116 95,116 48,0 76,-34 80,-80l37 0c-7,69 -51,111 -120,111 -87,0 -128,-64 -128,-144 0,-81 45,-146 131,-146 58,0 105,31 114,90l-37 0z"/>
  <polygon class="fil2" points="12170,1868 12361,1868 12361,1899 12207,1899 12207,1987 12351,1987 12351,2018 12207,2018 12207,2114 12363,2114 12363,2145 12170,2145 "/>
  <path class="fil2" d="M12575 1949c-4,-39 -30,-56 -68,-56 -32,0 -63,11 -63,47 0,34 45,39 89,49 43,10 86,25 89,75l0 10c-3,56 -59,78 -108,78 -63,0 -115,-30 -115,-98l35 0c0,47 39,67 81,67 33,0 70,-11 70,-51 0,-38 -44,-44 -89,-54 -44,-10 -88,-22 -88,-73 0,-57 50,-81 100,-81 57,0 100,26 102,87l-35 0z"/>
 </g>
</svg>
