<?xml version="1.0" encoding="UTF-8"?>
<!DOCTYPE svg PUBLIC "-//W3C//DTD SVG 1.1//EN" "http://www.w3.org/Graphics/SVG/1.1/DTD/svg11.dtd">
<svg xmlns="http://www.w3.org/2000/svg" xml:space="preserve" width="98.7778mm" height="20.8138mm" version="1.1" style="shape-rendering:geometricPrecision; text-rendering:geometricPrecision; image-rendering:optimizeQuality; fill-rule:evenodd; clip-rule:evenodd"
viewBox="0 0 9878 2081"
 xmlns:xlink="http://www.w3.org/1999/xlink">
 <defs>
  <style type="text/css">
   <![CDATA[
    .fil0 {fill:#2B2A29;fill-rule:nonzero}
    .fil2 {fill:#FFED00;fill-rule:nonzero}
    .fil1 {fill:#264796;fill-rule:nonzero}
   ]]>
  </style>
 </defs>
 <g id="Ebene_x0020_1">
  <metadata id="CorelCorpID_0Corel-Layer"/>
  <polygon class="fil0" points="3620,170 3505,170 3505,259 3633,259 3633,304 3450,304 3450,1 3626,1 3626,47 3505,47 3505,125 3620,125 "/>
  <path class="fil0" d="M3874 239c0,26 1,47 2,65l-48 0 -3 -33 -1 0c-9,16 -31,38 -70,38 -40,0 -76,-24 -76,-95l0 -129 55 0 0 120c0,36 12,59 41,59 22,0 36,-15 42,-29 2,-5 3,-11 3,-17l0 -133 55 0 0 154z"/>
  <path class="fil0" d="M3937 156c0,-30 0,-51 -1,-71l48 0 1 42 2 0c11,-31 37,-46 60,-46 5,0 9,0 13,1l0 52c-4,-1 -9,-2 -16,-2 -27,0 -45,17 -50,42 0,5 -1,11 -1,17l0 113 -56 0 0 -148z"/>
  <path class="fil0" d="M4140 195c0,42 20,74 54,74 31,0 53,-31 53,-75 0,-34 -15,-73 -53,-73 -39,0 -54,38 -54,74zm165 -2c0,80 -57,116 -113,116 -62,0 -110,-42 -110,-113 0,-71 48,-115 114,-115 65,0 109,45 109,112z"/>
  <path class="fil0" d="M4408 213c0,5 1,10 2,15 6,22 25,39 49,39 35,0 55,-30 55,-73 0,-38 -18,-70 -54,-70 -23,0 -44,17 -49,41 -2,5 -3,9 -3,14l0 34zm-55 -55c0,-28 -1,-52 -2,-73l49 0 2 34 1 0c17,-25 42,-38 75,-38 51,0 93,43 93,111 0,79 -50,117 -100,117 -28,0 -51,-11 -62,-29l-1 0 0 113 -55 0 0 -235z"/>
  <path class="fil0" d="M4748 51c-16,0 -27,-12 -27,-27 0,-16 12,-28 28,-28 15,0 27,12 27,28 0,15 -12,27 -27,27l-1 0zm-13 146c-39,-1 -76,8 -76,41 0,22 14,32 31,32 22,0 38,-15 43,-30 2,-4 2,-9 2,-12l0 -31zm-76 -146c-16,0 -28,-12 -28,-27 0,-16 12,-28 29,-28 14,0 26,12 26,28 0,15 -11,27 -27,27l0 0zm130 201c0,20 1,39 3,52l-50 0 -3 -24 -2 0c-13,17 -36,29 -64,29 -44,0 -69,-32 -69,-65 0,-55 49,-83 130,-83l0 -3c0,-15 -6,-38 -45,-38 -21,0 -44,6 -59,16l-10 -36c16,-10 44,-19 79,-19 70,0 90,44 90,92l0 79z"/>
  <path class="fil0" d="M4851 304l0 -219 55 0 0 219 -55 0zm58 -280c0,17 -12,30 -31,30 -18,0 -31,-13 -31,-30 0,-17 13,-30 31,-30 19,0 31,13 31,30z"/>
  <path class="fil0" d="M4966 254c13,7 36,15 56,15 24,0 35,-10 35,-24 0,-15 -9,-22 -36,-32 -42,-15 -60,-38 -60,-64 0,-38 32,-68 83,-68 24,0 45,6 58,13l-11 39c-9,-6 -27,-13 -46,-13 -20,0 -31,10 -31,23 0,14 10,21 38,31 40,14 58,34 59,67 0,39 -31,68 -89,68 -27,0 -51,-6 -67,-15l11 -40z"/>
  <path class="fil0" d="M5320 298c-11,5 -34,11 -62,11 -68,0 -113,-44 -113,-112 0,-65 45,-116 122,-116 20,0 41,4 54,10l-10 41c-9,-4 -22,-8 -42,-8 -42,0 -67,31 -67,71 0,45 29,70 67,70 19,0 33,-4 44,-8l7 41z"/>
  <path class="fil0" d="M5364 -15l56 0 0 131 1 0c7,-11 16,-20 27,-26 11,-6 24,-9 38,-9 37,0 76,24 76,94l0 129 -55 0 0 -122c0,-32 -12,-56 -42,-56 -22,0 -37,14 -43,31 -2,4 -2,10 -2,17l0 130 -56 0 0 -319z"/>
  <path class="fil0" d="M5760 172c0,-20 -9,-54 -46,-54 -34,0 -48,31 -50,54l96 0zm-96 38c1,40 32,57 67,57 26,0 44,-4 61,-10l8 38c-19,8 -45,14 -77,14 -71,0 -112,-44 -112,-111 0,-60 36,-117 106,-117 72,0 95,58 95,106 0,10 -1,18 -2,23l-146 0z"/>
  <path class="fil0" d="M6013 1l0 177c0,59 24,87 62,87 40,0 64,-28 64,-87l0 -177 55 0 0 173c0,94 -48,135 -121,135 -70,0 -116,-39 -116,-134l0 -174 56 0z"/>
  <path class="fil0" d="M6258 151c0,-26 0,-47 -2,-66l49 0 3 33 1 0c9,-17 33,-37 70,-37 38,0 77,24 77,93l0 130 -55 0 0 -123c0,-32 -12,-56 -42,-56 -22,0 -37,16 -43,33 -2,5 -2,12 -2,18l0 128 -56 0 0 -153z"/>
  <path class="fil0" d="M6518 304l0 -219 56 0 0 219 -56 0zm59 -280c0,17 -12,30 -31,30 -19,0 -31,-13 -31,-30 0,-17 13,-30 31,-30 19,0 31,13 31,30z"/>
  <path class="fil0" d="M6680 195c0,42 20,74 54,74 31,0 54,-31 54,-75 0,-34 -16,-73 -53,-73 -40,0 -55,38 -55,74zm165 -2c0,80 -57,116 -113,116 -62,0 -109,-42 -109,-113 0,-71 47,-115 113,-115 65,0 109,45 109,112z"/>
  <path class="fil0" d="M6893 151c0,-26 0,-47 -2,-66l49 0 3 33 1 0c9,-17 33,-37 70,-37 38,0 77,24 77,93l0 130 -55 0 0 -123c0,-32 -12,-56 -42,-56 -22,0 -37,16 -43,33 -2,5 -2,12 -2,18l0 128 -56 0 0 -153z"/>
  <path class="fil0" d="M7180 309c-19,0 -33,-15 -33,-35 0,-21 14,-36 34,-36 20,0 34,15 34,36 0,20 -14,35 -34,35l-1 0z"/>
  <polygon class="fil0" points="7530,170 7416,170 7416,259 7544,259 7544,304 7361,304 7361,1 7537,1 7537,47 7416,47 7416,125 7530,125 "/>
  <path class="fil0" d="M7785 239c0,26 1,47 2,65l-48 0 -3 -33 -1 0c-10,16 -31,38 -70,38 -40,0 -77,-24 -77,-95l0 -129 56 0 0 120c0,36 11,59 41,59 22,0 36,-15 42,-29 2,-5 3,-11 3,-17l0 -133 55 0 0 154z"/>
  <path class="fil0" d="M7848 156c0,-30 0,-51 -2,-71l48 0 2 42 2 0c11,-31 36,-46 60,-46 5,0 8,0 13,1l0 52c-5,-1 -10,-2 -16,-2 -27,0 -45,17 -50,42 -1,5 -2,11 -2,17l0 113 -55 0 0 -148z"/>
  <path class="fil0" d="M8050 195c0,42 21,74 55,74 31,0 53,-31 53,-75 0,-34 -15,-73 -53,-73 -39,0 -55,38 -55,74zm165 -2c0,80 -56,116 -112,116 -62,0 -110,-42 -110,-113 0,-71 48,-115 114,-115 65,0 108,45 108,112z"/>
  <path class="fil0" d="M8319 213c0,5 1,10 2,15 5,22 25,39 49,39 35,0 55,-30 55,-73 0,-38 -19,-70 -54,-70 -23,0 -44,17 -50,41 -1,5 -2,9 -2,14l0 34zm-55 -55c0,-28 -1,-52 -2,-73l49 0 2 34 1 0c16,-25 42,-38 75,-38 51,0 92,43 92,111 0,79 -49,117 -99,117 -28,0 -51,-11 -62,-29l-1 0 0 113 -55 0 0 -235z"/>
  <path class="fil0" d="M8659 51c-16,0 -27,-12 -27,-27 0,-16 12,-28 27,-28 16,0 27,12 27,28 0,15 -11,27 -27,27l0 0zm-13 146c-39,-1 -76,8 -76,41 0,22 13,32 31,32 22,0 38,-15 43,-30 1,-4 2,-9 2,-12l0 -31zm-76 -146c-16,0 -28,-12 -28,-27 0,-16 12,-28 28,-28 15,0 27,12 27,28 0,15 -11,27 -27,27l0 0zm130 201c0,20 1,39 3,52l-50 0 -3 -24 -2 0c-13,17 -36,29 -65,29 -44,0 -68,-32 -68,-65 0,-55 49,-83 130,-83l0 -3c0,-15 -6,-38 -45,-38 -22,0 -44,6 -59,16l-11 -36c17,-10 45,-19 80,-19 70,0 90,44 90,92l0 79z"/>
  <path class="fil0" d="M8761 304l0 -219 56 0 0 219 -56 0zm59 -280c0,17 -12,30 -31,30 -19,0 -31,-13 -31,-30 0,-17 13,-30 31,-30 19,0 31,13 31,30z"/>
  <path class="fil0" d="M8877 254c13,7 36,15 56,15 24,0 35,-10 35,-24 0,-15 -9,-22 -36,-32 -42,-15 -60,-38 -60,-64 0,-38 32,-68 83,-68 24,0 45,6 58,13l-11 39c-10,-6 -27,-13 -46,-13 -20,0 -31,10 -31,23 0,14 10,21 38,31 40,14 58,34 59,67 0,39 -31,68 -89,68 -27,0 -51,-6 -67,-15l11 -40z"/>
  <path class="fil0" d="M9231 298c-12,5 -35,11 -62,11 -68,0 -113,-44 -113,-112 0,-65 45,-116 122,-116 20,0 41,4 54,10l-10 41c-9,-4 -22,-8 -42,-8 -42,0 -68,31 -67,71 0,45 29,70 67,70 19,0 33,-4 43,-8l8 41z"/>
  <path class="fil0" d="M9275 -15l56 0 0 131 1 0c6,-11 16,-20 27,-26 11,-6 24,-9 38,-9 37,0 76,24 76,94l0 129 -55 0 0 -122c0,-32 -12,-56 -42,-56 -22,0 -37,14 -43,31 -2,4 -2,10 -2,17l0 130 -56 0 0 -319z"/>
  <path class="fil0" d="M9671 172c0,-20 -9,-54 -46,-54 -34,0 -48,31 -51,54l97 0zm-97 38c2,40 33,57 68,57 25,0 44,-4 61,-10l8 38c-19,8 -45,14 -77,14 -71,0 -113,-44 -113,-111 0,-60 37,-117 107,-117 72,0 95,58 95,106 0,10 -1,18 -2,23l-147 0z"/>
  <path class="fil0" d="M9770 156c0,-30 0,-51 -1,-71l48 0 1 42 2 0c11,-31 37,-46 60,-46 5,0 8,0 12,1l0 52c-4,-1 -9,-2 -15,-2 -27,0 -45,17 -50,42 0,5 -1,11 -1,17l0 113 -56 0 0 -148z"/>
  <polygon class="fil0" points="3450,562 3625,562 3625,607 3505,607 3505,691 3617,691 3617,736 3505,736 3505,865 3450,865 "/>
  <path class="fil0" d="M3707 756c0,42 21,74 55,74 31,0 53,-31 53,-75 0,-35 -15,-74 -53,-74 -39,0 -55,38 -55,75zm165 -3c0,81 -56,117 -112,117 -62,0 -110,-43 -110,-113 0,-72 47,-116 113,-116 66,0 109,46 109,112z"/>
  <path class="fil0" d="M3918 711c0,-25 -1,-46 -2,-65l48 0 3 33 1 0c10,-17 34,-38 70,-38 38,0 78,25 78,94l0 130 -56 0 0 -124c0,-31 -11,-55 -41,-55 -22,0 -38,16 -43,32 -2,5 -3,12 -3,18l0 129 -55 0 0 -154z"/>
  <path class="fil0" d="M4321 737c0,-4 0,-10 -1,-14 -5,-22 -23,-39 -48,-39 -35,0 -55,31 -55,72 0,40 20,69 55,69 22,0 42,-15 47,-39 2,-5 2,-10 2,-16l0 -33zm55 -191l0 257c0,23 1,47 2,62l-49 0 -2 -35 -1 0c-13,24 -40,40 -72,40 -52,0 -93,-45 -93,-112 -1,-73 45,-117 98,-117 30,0 51,13 61,29l1 0 0 -124 55 0z"/>
  <path class="fil0" d="M4433 814c13,8 36,16 56,16 24,0 35,-10 35,-25 0,-14 -9,-22 -36,-31 -42,-15 -60,-39 -60,-64 0,-39 32,-69 83,-69 24,0 45,6 58,13l-11 39c-9,-5 -27,-12 -46,-12 -20,0 -31,9 -31,22 0,14 10,21 38,31 40,14 58,35 59,67 0,40 -31,69 -89,69 -27,0 -51,-7 -67,-16l11 -40z"/>
  <path class="fil0" d="M4722 865l0 -178 -29 0 0 -41 29 0 0 -10c0,-28 8,-56 27,-74 16,-15 38,-21 57,-21 15,0 27,2 36,5l-5 43c-5,-2 -13,-4 -23,-4 -27,0 -37,23 -37,50l0 11 48 0 0 41 -47 0 0 178 -56 0z"/>
  <path class="fil0" d="M5003 612c-15,0 -27,-13 -27,-28 0,-15 12,-28 28,-28 16,0 27,12 27,28 0,15 -11,28 -27,28l-1 0zm-89 0c-16,0 -28,-13 -28,-28 0,-15 13,-28 29,-28 15,0 26,12 26,28 0,15 -11,28 -27,28l0 0zm141 187c0,26 1,48 2,66l-48 0 -3 -33 -1 0c-9,15 -31,38 -70,38 -40,0 -76,-24 -76,-96l0 -128 55 0 0 119c0,36 12,60 41,60 22,0 36,-16 42,-30 2,-5 3,-11 3,-17l0 -132 55 0 0 153z"/>
  <path class="fil0" d="M5115 716c0,-29 0,-50 -2,-70l49 0 1 42 2 0c11,-31 36,-47 60,-47 5,0 8,0 13,1l0 52c-5,0 -10,-1 -16,-1 -27,0 -45,17 -50,41 -1,5 -1,11 -1,18l0 113 -56 0 0 -149z"/>
  <path class="fil0" d="M5368 716c0,-29 0,-50 -2,-70l49 0 1 42 2 0c11,-31 37,-47 60,-47 5,0 8,0 13,1l0 52c-5,0 -10,-1 -16,-1 -27,0 -45,17 -50,41 -1,5 -2,11 -2,18l0 113 -55 0 0 -149z"/>
  <path class="fil0" d="M5659 732c1,-20 -8,-53 -45,-53 -34,0 -48,31 -51,53l96 0zm-96 39c2,39 33,56 68,56 25,0 44,-3 60,-9l9 38c-19,7 -45,14 -77,14 -71,0 -113,-44 -113,-111 0,-61 37,-118 107,-118 72,0 95,58 95,106 0,11 -1,19 -2,24l-147 0z"/>
  <path class="fil0" d="M5899 734c0,-5 0,-11 -2,-15 -6,-21 -21,-36 -45,-36 -31,0 -54,27 -54,72 0,37 19,67 54,67 21,0 39,-13 45,-33 1,-6 2,-14 2,-20l0 -35zm55 99c0,46 -9,79 -32,99 -23,20 -54,27 -85,27 -27,0 -57,-6 -76,-18l12 -42c14,8 37,17 64,17 36,0 63,-19 63,-66l0 -19 -1 0c-13,19 -35,32 -64,32 -54,0 -93,-45 -93,-107 0,-71 47,-115 100,-115 33,0 53,16 63,34l1 0 2 -29 48 0c-1,15 -2,33 -2,63l0 124z"/>
  <path class="fil0" d="M6012 865l0 -219 56 0 0 219 -56 0zm59 -280c0,16 -12,29 -32,29 -18,0 -30,-13 -30,-29 0,-17 12,-30 31,-30 19,0 30,13 31,30z"/>
  <path class="fil0" d="M6170 756c0,42 21,74 54,74 32,0 54,-31 54,-75 0,-35 -15,-74 -53,-74 -39,0 -55,38 -55,75zm165 -3c0,81 -57,117 -112,117 -62,0 -110,-43 -110,-113 0,-72 47,-116 113,-116 65,0 109,46 109,112z"/>
  <path class="fil0" d="M6380 711c0,-25 0,-46 -1,-65l48 0 3 33 1 0c10,-17 33,-38 70,-38 38,0 78,25 78,94l0 130 -56 0 0 -124c0,-31 -11,-55 -42,-55 -22,0 -37,16 -43,32 -1,5 -2,12 -2,18l0 129 -56 0 0 -154z"/>
  <path class="fil0" d="M6753 758c-39,-1 -76,7 -76,41 0,21 14,31 31,31 22,0 39,-14 44,-30 1,-4 1,-8 1,-12l0 -30zm54 54c0,20 1,39 3,53l-49 0 -4 -24 -1 0c-14,17 -37,29 -65,29 -44,0 -69,-32 -69,-65 0,-56 49,-84 130,-83l0 -4c0,-14 -6,-38 -44,-38 -22,0 -45,7 -59,16l-11 -36c16,-10 44,-19 79,-19 70,0 90,44 90,92l0 79z"/>
  <polygon class="fil0" points="6866,865 6921,865 6921,546 6866,546 "/>
  <path class="fil0" d="M7117 732c0,-20 -9,-53 -46,-53 -34,0 -48,31 -51,53l97 0zm-97 39c2,39 33,56 68,56 25,0 44,-3 60,-9l9 38c-19,7 -45,14 -77,14 -71,0 -113,-44 -113,-111 0,-61 37,-118 107,-118 72,0 95,58 95,106 0,11 -1,19 -2,24l-147 0z"/>
  <polygon class="fil0" points="7478,730 7364,730 7364,819 7491,819 7491,865 7308,865 7308,562 7485,562 7485,607 7364,607 7364,685 7478,685 "/>
  <path class="fil0" d="M7538 711c0,-25 -1,-46 -2,-65l48 0 3 33 1 0c10,-17 34,-38 70,-38 38,0 78,25 78,94l0 130 -55 0 0 -124c0,-31 -12,-55 -42,-55 -22,0 -38,16 -43,32 -2,5 -3,12 -3,18l0 129 -55 0 0 -154z"/>
  <path class="fil0" d="M7856 590l0 56 52 0 0 41 -52 0 0 97c0,26 7,40 28,40 10,0 15,-1 22,-2l1 42c-8,3 -23,6 -40,6 -21,0 -38,-7 -48,-19 -12,-12 -17,-32 -17,-61l0 -103 -32 0 0 -41 32 0 0 -41 54 -15z"/>
  <path class="fil0" d="M7987 646l22 99c5,24 10,47 14,71l1 0c5,-24 12,-48 18,-70l29 -100 45 0 27 97c7,26 13,49 17,73l1 0c4,-24 9,-47 15,-73l24 -97 54 0 -68 219 -52 0 -26 -89c-6,-23 -11,-44 -16,-70l-1 0c-5,27 -10,48 -17,70l-28 89 -51 0 -65 -219 57 0z"/>
  <path class="fil0" d="M8290 865l0 -219 56 0 0 219 -56 0zm59 -280c0,16 -12,29 -32,29 -18,0 -30,-13 -30,-29 0,-17 12,-30 31,-30 19,0 30,13 31,30z"/>
  <path class="fil0" d="M8566 858c-12,5 -35,12 -62,12 -68,0 -113,-44 -113,-112 0,-66 45,-117 122,-117 20,0 41,4 53,10l-10 42c-9,-4 -22,-9 -41,-9 -43,0 -68,31 -67,71 0,45 29,71 67,71 19,0 32,-4 43,-9l8 41z"/>
  <path class="fil0" d="M8662 742l1 0c5,-8 12,-18 18,-26l53 -70 66 0 -81 89 93 130 -68 0 -63 -97 -19 22 0 75 -55 0 0 -319 55 0 0 196z"/>
  <polygon class="fil0" points="8842,865 8898,865 8898,546 8842,546 "/>
  <path class="fil0" d="M9153 799c0,26 1,48 2,66l-48 0 -3 -33 -1 0c-9,15 -31,38 -70,38 -40,0 -77,-24 -77,-96l0 -128 56 0 0 119c0,36 11,60 41,60 22,0 36,-16 42,-30 2,-5 3,-11 3,-17l0 -132 55 0 0 153z"/>
  <path class="fil0" d="M9213 711c0,-25 0,-46 -2,-65l49 0 3 33 1 0c9,-17 33,-38 69,-38 39,0 78,25 78,94l0 130 -55 0 0 -124c0,-31 -12,-55 -42,-55 -22,0 -37,16 -43,32 -2,5 -2,12 -2,18l0 129 -56 0 0 -154z"/>
  <path class="fil0" d="M9613 734c0,-5 0,-11 -2,-15 -6,-21 -21,-36 -45,-36 -31,0 -54,27 -54,72 0,37 19,67 54,67 21,0 39,-13 45,-33 1,-6 2,-14 2,-20l0 -35zm55 99c0,46 -9,79 -32,99 -23,20 -54,27 -85,27 -27,0 -57,-6 -76,-18l12 -42c14,8 38,17 64,17 36,0 63,-19 63,-66l0 -19 -1 0c-13,19 -35,32 -64,32 -54,0 -93,-45 -93,-107 0,-71 47,-115 100,-115 33,0 53,16 63,34l1 0 2 -29 48 0c-1,15 -2,33 -2,63l0 124z"/>
  <path class="fil0" d="M9747 870c-19,0 -33,-16 -33,-36 0,-20 14,-35 34,-35 20,0 34,14 34,35 0,20 -13,36 -34,36l-1 0z"/>
  <polygon class="fil0" points="3620,1291 3505,1291 3505,1380 3633,1380 3633,1425 3450,1425 3450,1122 3626,1122 3626,1168 3505,1168 3505,1246 3620,1246 "/>
  <path class="fil0" d="M3710 1206l35 111c7,20 11,37 15,55l2 0c4,-18 9,-35 14,-55l35 -111 58 0 -83 219 -54 0 -82 -219 60 0z"/>
  <path class="fil0" d="M3903 1277c0,-30 0,-51 -2,-71l48 0 2 42 2 0c11,-31 36,-47 60,-47 5,0 8,1 13,2l0 52c-5,-1 -10,-2 -16,-2 -27,0 -45,17 -50,42 -1,5 -2,11 -2,17l0 113 -55 0 0 -148z"/>
  <path class="fil0" d="M4102 1316c0,42 21,74 55,74 31,0 53,-31 53,-75 0,-34 -15,-73 -53,-73 -39,0 -55,38 -55,74zm165 -2c0,80 -56,116 -112,116 -62,0 -110,-43 -110,-113 0,-72 47,-116 113,-116 66,0 109,46 109,113z"/>
  <path class="fil0" d="M4368 1334c0,5 0,10 2,15 5,22 25,38 48,38 35,0 56,-29 56,-72 0,-39 -19,-70 -54,-70 -23,0 -44,17 -50,41 -1,4 -2,9 -2,14l0 34zm-55 -55c0,-29 -1,-52 -2,-73l48 0 3 34 1 0c16,-25 42,-39 75,-39 50,0 92,43 92,112 0,79 -50,117 -100,117 -27,0 -50,-12 -61,-29l-1 0 0 113 -55 0 0 -235z"/>
  <path class="fil0" d="M4573 1374c12,8 36,16 56,16 24,0 35,-10 35,-24 0,-15 -9,-23 -36,-32 -43,-15 -61,-38 -60,-64 0,-39 32,-69 83,-69 24,0 45,7 58,13l-11 39c-10,-5 -27,-12 -47,-12 -19,0 -30,9 -30,23 0,14 10,21 38,30 40,15 58,35 59,67 0,40 -31,69 -89,69 -27,0 -51,-7 -67,-16l11 -40z"/>
  <path class="fil0" d="M4818 1302l1 0c5,-8 12,-17 18,-25l53 -71 66 0 -81 90 93 129 -68 0 -63 -96 -19 22 0 74 -55 0 0 -319 55 0 0 196z"/>
  <path class="fil0" d="M5147 1111l-56 67 -38 0 39 -67 55 0zm-34 207c-40,-1 -77,8 -77,41 0,22 14,32 32,32 22,0 38,-15 43,-31 1,-4 2,-8 2,-12l0 -30zm53 55c0,19 1,39 4,52l-50 0 -4 -24 -1 0c-14,17 -37,29 -65,29 -44,0 -69,-32 -69,-65 0,-55 49,-83 130,-83l0 -3c0,-15 -6,-39 -44,-39 -22,0 -44,7 -59,17l-11 -36c16,-10 45,-20 79,-20 70,0 90,45 90,93l0 79z"/>
  <path class="fil0" d="M5514 1360c0,26 1,47 2,65l-49 0 -3 -33 0 0c-10,16 -31,38 -71,38 -40,0 -76,-24 -76,-95l0 -129 55 0 0 119c0,37 12,60 41,60 22,0 37,-16 42,-29 2,-5 4,-11 4,-18l0 -132 55 0 0 154z"/>
  <path class="fil0" d="M5574 1271c0,-25 -1,-46 -2,-65l48 0 3 33 1 0c10,-17 34,-38 70,-38 38,0 78,25 78,94l0 130 -55 0 0 -123c0,-32 -12,-56 -42,-56 -22,0 -38,16 -43,33 -2,5 -3,11 -3,18l0 128 -55 0 0 -154z"/>
  <path class="fil0" d="M5831 1425l0 -219 55 0 0 219 -55 0zm59 -280c0,17 -13,30 -32,30 -18,0 -30,-13 -30,-30 0,-17 12,-30 31,-30 18,0 30,13 31,30z"/>
  <path class="fil0" d="M6081 1293c1,-21 -8,-54 -45,-54 -35,0 -49,31 -51,54l96 0zm-96 38c1,40 32,57 67,57 26,0 44,-4 61,-10l8 38c-19,8 -45,14 -76,14 -71,0 -113,-44 -113,-111 0,-61 37,-118 107,-118 71,0 94,59 94,107 0,10 -1,18 -2,23l-146 0z"/>
  <path class="fil0" d="M6198 1430c-19,0 -33,-15 -33,-35 0,-21 14,-36 34,-36 20,0 34,15 34,36 0,20 -14,35 -34,35l-1 0z"/>
  <polygon class="fil0" points="6542,1291 6428,1291 6428,1380 6556,1380 6556,1425 6373,1425 6373,1122 6549,1122 6549,1168 6428,1168 6428,1246 6542,1246 "/>
  <path class="fil0" d="M6632 1206l36 111c6,20 11,37 15,55l1 0c4,-18 9,-35 15,-55l35 -111 58 0 -84 219 -54 0 -81 -219 59 0z"/>
  <path class="fil0" d="M6826 1277c0,-30 -1,-51 -2,-71l48 0 2 42 2 0c10,-31 36,-47 59,-47 6,0 9,1 13,2l0 52c-4,-1 -9,-2 -16,-2 -26,0 -44,17 -49,42 -1,5 -2,11 -2,17l0 113 -55 0 0 -148z"/>
  <path class="fil0" d="M7025 1316c0,42 21,74 54,74 32,0 54,-31 54,-75 0,-34 -16,-73 -53,-73 -39,0 -55,38 -55,74zm165 -2c0,80 -57,116 -113,116 -62,0 -109,-43 -109,-113 0,-72 47,-116 113,-116 65,0 109,46 109,113z"/>
  <path class="fil0" d="M7290 1334c0,5 1,10 2,15 6,22 25,38 49,38 35,0 56,-29 56,-72 0,-39 -19,-70 -55,-70 -23,0 -44,17 -49,41 -2,4 -3,9 -3,14l0 34zm-55 -55c0,-29 -1,-52 -2,-73l49 0 3 34 1 0c16,-25 41,-39 75,-39 50,0 92,43 92,112 0,79 -50,117 -100,117 -28,0 -50,-12 -62,-29l-1 0 0 113 -55 0 0 -235z"/>
  <path class="fil0" d="M7495 1374c13,8 37,16 57,16 24,0 35,-10 35,-24 0,-15 -9,-23 -36,-32 -43,-15 -61,-38 -61,-64 0,-39 32,-69 83,-69 24,0 46,7 58,13l-11 39c-9,-5 -27,-12 -46,-12 -20,0 -31,9 -31,23 0,14 11,21 39,30 39,15 58,35 58,67 0,40 -31,69 -89,69 -26,0 -50,-7 -66,-16l10 -40z"/>
  <path class="fil0" d="M7741 1302l1 0c5,-8 11,-17 17,-25l53 -71 67 0 -81 90 92 129 -67 0 -63 -96 -19 22 0 74 -56 0 0 -319 56 0 0 196z"/>
  <path class="fil0" d="M8074 1111l-56 67 -38 0 39 -67 55 0zm-122 95l40 118c4,13 9,30 12,42l1 0c4,-12 8,-28 12,-43l34 -117 60 0 -55 150c-30,81 -51,118 -77,140 -21,20 -44,27 -58,29l-12 -47c9,-2 21,-7 32,-15 11,-7 23,-20 30,-35 3,-4 4,-7 4,-10 0,-2 -1,-5 -3,-11l-80 -201 60 0z"/>
  <path class="fil0" d="M8242 1425l0 -177 -30 0 0 -42 30 0 0 -9c0,-28 8,-57 26,-75 17,-15 39,-21 57,-21 15,0 27,2 36,6l-4 42c-6,-2 -14,-4 -23,-4 -28,0 -37,23 -37,50l0 11 48 0 0 42 -48 0 0 177 -55 0z"/>
  <path class="fil0" d="M8417 1316c0,42 21,74 55,74 31,0 53,-31 53,-75 0,-34 -15,-73 -53,-73 -39,0 -55,38 -55,74zm165 -2c0,80 -57,116 -112,116 -62,0 -110,-43 -110,-113 0,-72 47,-116 113,-116 65,0 109,46 109,113z"/>
  <path class="fil0" d="M8627 1271c0,-25 0,-46 -1,-65l48 0 3 33 1 0c10,-17 34,-38 70,-38 38,0 78,25 78,94l0 130 -56 0 0 -123c0,-32 -11,-56 -41,-56 -22,0 -38,16 -44,33 -1,5 -2,11 -2,18l0 128 -56 0 0 -154z"/>
  <path class="fil0" d="M9031 1298c0,-5 0,-10 -1,-15 -5,-21 -23,-39 -48,-39 -35,0 -55,32 -55,72 0,40 20,70 55,70 22,0 42,-16 47,-39 2,-5 2,-11 2,-17l0 -32zm55 -192l0 258c0,22 1,46 2,61l-49 0 -3 -34 0 0c-13,24 -40,39 -72,39 -52,0 -93,-44 -93,-112 -1,-73 45,-117 98,-117 30,0 51,13 61,29l1 0 0 -124 55 0z"/>
  <path class="fil0" d="M9294 1334c0,5 0,10 2,15 5,22 25,38 48,38 35,0 56,-29 56,-72 0,-39 -19,-70 -54,-70 -23,0 -44,17 -50,41 -1,4 -2,9 -2,14l0 34zm-55 -55c0,-29 -1,-52 -2,-73l48 0 3 34 1 0c16,-25 42,-39 75,-39 50,0 92,43 92,112 0,79 -50,117 -100,117 -27,0 -50,-12 -61,-29l-1 0 0 113 -55 0 0 -235z"/>
  <path class="fil0" d="M9502 1277c0,-30 -1,-51 -2,-71l48 0 2 42 1 0c11,-31 37,-47 60,-47 6,0 9,1 13,2l0 52c-4,-1 -9,-2 -16,-2 -26,0 -44,17 -49,42 -1,5 -2,11 -2,17l0 113 -55 0 0 -148z"/>
  <path class="fil0" d="M9701 1316c0,42 20,74 54,74 32,0 54,-31 54,-75 0,-34 -16,-73 -53,-73 -40,0 -55,38 -55,74zm165 -2c0,80 -57,116 -113,116 -62,0 -109,-43 -109,-113 0,-72 47,-116 113,-116 65,0 109,46 109,113z"/>
  <path class="fil0" d="M3448 1837c0,-29 -1,-50 -2,-70l48 0 2 42 2 0c11,-31 36,-47 60,-47 5,0 8,0 13,1l0 52c-5,-1 -10,-2 -17,-2 -26,0 -44,18 -49,42 -1,5 -2,11 -2,17l0 114 -55 0 0 -149z"/>
  <path class="fil0" d="M3739 1853c1,-20 -8,-53 -45,-53 -34,0 -49,31 -51,53l96 0zm-96 39c1,39 32,56 67,56 26,0 44,-3 61,-10l8 39c-19,7 -45,14 -76,14 -71,0 -113,-44 -113,-111 0,-61 37,-118 107,-118 71,0 94,58 94,106 0,11 -1,19 -2,24l-146 0z"/>
  <path class="fil0" d="M3979 1854c0,-5 -1,-10 -2,-14 -6,-21 -22,-36 -45,-36 -31,0 -54,27 -54,72 0,37 19,67 53,67 21,0 39,-14 45,-33 2,-6 3,-14 3,-20l0 -36zm55 100c0,46 -9,78 -32,99 -23,20 -55,27 -85,27 -28,0 -57,-6 -76,-18l12 -42c14,8 37,17 64,17 36,0 63,-19 63,-66l0 -19 -1 0c-13,19 -35,32 -64,32 -55,0 -93,-45 -93,-107 0,-72 47,-115 99,-115 33,0 53,16 64,34l0 0 3 -29 48 0c-1,15 -2,33 -2,63l0 124z"/>
  <path class="fil0" d="M4091 1986l0 -219 56 0 0 219 -56 0zm59 -280c0,16 -12,29 -31,29 -19,0 -31,-13 -31,-29 0,-17 13,-31 31,-31 19,0 31,14 31,31z"/>
  <path class="fil0" d="M4250 1876c0,43 20,75 54,75 32,0 54,-31 54,-75 0,-35 -16,-74 -53,-74 -40,0 -55,38 -55,74zm165 -2c0,81 -57,117 -113,117 -62,0 -109,-43 -109,-113 0,-72 47,-116 113,-116 65,0 109,46 109,112z"/>
  <path class="fil0" d="M4460 1832c0,-25 0,-46 -2,-65l49 0 2 33 2 0c9,-18 33,-38 69,-38 39,0 78,25 78,94l0 130 -55 0 0 -124c0,-31 -12,-55 -42,-55 -22,0 -37,15 -43,32 -2,5 -2,12 -2,18l0 129 -56 0 0 -154z"/>
  <path class="fil0" d="M4867 1672l-55 66 -38 0 39 -66 54 0zm-34 207c-39,-1 -76,7 -76,41 0,21 14,31 31,31 22,0 38,-14 43,-30 2,-4 2,-9 2,-12l0 -30zm54 54c0,20 1,39 3,53l-50 0 -3 -25 -2 0c-13,17 -36,30 -64,30 -44,0 -69,-32 -69,-66 0,-55 49,-83 130,-82l0 -4c0,-14 -6,-38 -45,-38 -21,0 -44,7 -59,16l-10 -36c16,-10 44,-19 79,-19 70,0 90,44 90,92l0 79z"/>
  <polygon class="fil0" points="4945,1986 5001,1986 5001,1666 4945,1666 "/>
  <path class="fil0" d="M5061 1832c0,-25 -1,-46 -2,-65l49 0 2 33 2 0c9,-18 33,-38 69,-38 39,0 78,25 78,94l0 130 -55 0 0 -124c0,-31 -12,-55 -42,-55 -22,0 -37,15 -43,32 -2,5 -2,12 -2,18l0 129 -56 0 0 -154z"/>
  <path class="fil0" d="M5413 1672l-55 66 -38 0 39 -66 54 0zm-95 314l0 -219 56 0 0 219 -56 0z"/>
  <path class="fil0" d="M5526 1837c0,-29 0,-50 -2,-70l48 0 2 42 2 0c11,-31 36,-47 60,-47 5,0 8,0 13,1l0 52c-5,-1 -10,-2 -16,-2 -27,0 -45,18 -50,42 -1,5 -2,11 -2,17l0 114 -55 0 0 -149z"/>
  <path class="fil0" d="M5725 1876c0,43 21,75 54,75 32,0 54,-31 54,-75 0,-35 -15,-74 -53,-74 -39,0 -55,38 -55,74zm165 -2c0,81 -57,117 -112,117 -62,0 -110,-43 -110,-113 0,-72 47,-116 113,-116 65,0 109,46 109,112z"/>
  <path class="fil0" d="M5911 1954l82 -105c12,-14 21,-25 33,-37l0 -1 -107 0 0 -44 174 0 0 33 -80 103c-11,13 -21,26 -33,38l0 1 116 0 0 44 -185 0 0 -32z"/>
  <path class="fil0" d="M6176 1767l36 111c6,19 11,37 15,55l1 0c4,-18 9,-35 15,-55l34 -111 59 0 -84 219 -54 0 -81 -219 59 0z"/>
  <path class="fil0" d="M6407 1876c0,43 21,75 54,75 32,0 54,-31 54,-75 0,-35 -16,-74 -53,-74 -39,0 -55,38 -55,74zm165 -2c0,81 -57,117 -113,117 -62,0 -109,-43 -109,-113 0,-72 47,-116 113,-116 65,0 109,46 109,112z"/>
  <path class="fil0" d="M6683 1706c0,16 -12,29 -32,29 -18,0 -30,-13 -30,-29 0,-17 12,-31 31,-31 19,0 31,14 31,31zm-114 332c18,-1 32,-6 41,-15 10,-11 14,-29 14,-76l0 -180 56 0 0 195c0,46 -9,74 -29,94 -19,18 -50,25 -77,25l-5 -43z"/>
  <path class="fil0" d="M6761 1991c-20,0 -34,-16 -34,-36 0,-21 14,-35 34,-35 20,0 34,14 34,35 0,20 -13,36 -34,36l0 0z"/>
  <polygon class="fil1" points="0,-32 3066,-32 3066,2012 0,2012 "/>
  <polygon class="fil2" points="753,949 847,945 877,855 911,944 1005,945 932,1004 960,1094 881,1042 804,1096 829,1005 "/>
  <polygon class="fil2" points="1644,283 1574,347 1609,435 1526,389 1454,449 1472,356 1393,305 1486,294 1510,203 1550,289 "/>
  <polygon class="fil2" points="1180,288 1211,376 1306,379 1231,437 1258,527 1180,474 1102,527 1128,437 1054,379 1148,376 "/>
  <polygon class="fil2" points="936,540 973,627 1067,625 995,686 1026,775 946,726 871,783 893,692 815,638 909,630 "/>
  <polygon class="fil2" points="813,1299 907,1296 939,1207 971,1296 1065,1299 991,1356 1017,1447 939,1394 861,1447 888,1356 "/>
  <polygon class="fil2" points="1059,1544 1153,1538 1182,1448 1217,1536 1311,1535 1238,1595 1268,1685 1188,1635 1112,1690 1135,1599 "/>
  <polygon class="fil2" points="1435,1778 1461,1687 1387,1629 1481,1627 1513,1538 1544,1627 1639,1629 1564,1687 1591,1778 1513,1724 "/>
  <polygon class="fil2" points="1779,1694 1804,1603 1729,1547 1823,1542 1853,1453 1886,1541 1981,1542 1907,1601 1935,1691 1856,1639 "/>
  <polygon class="fil2" points="2020,1448 2047,1357 1972,1299 2067,1297 2098,1208 2130,1297 2224,1299 2150,1357 2176,1448 2098,1394 "/>
  <polygon class="fil2" points="2267,1113 2189,1061 2112,1115 2137,1024 2061,968 2155,963 2185,874 2219,962 2313,964 2239,1022 "/>
  <polygon class="fil2" points="2173,778 2096,723 2018,775 2046,685 1972,626 2066,625 2100,537 2130,626 2224,630 2149,687 "/>
  <polygon class="fil2" points="1974,386 1899,444 1926,534 1848,481 1770,534 1796,443 1722,386 1816,383 1848,294 1879,383 "/>
 </g>
</svg>
