<?xml version="1.0" encoding="UTF-8" standalone="no"?>
<svg
  xmlns:dc="http://purl.org/dc/elements/1.1/"
  xmlns:cc="http://creativecommons.org/ns#"
  xmlns:rdf="http://www.w3.org/1999/02/22-rdf-syntax-ns#"
  xmlns="http://www.w3.org/2000/svg"
  version="1.1"
  width="892.91339"
  height="114.09448"
  id="svg15633">
  <defs
     id="defs15635" />
  <metadata
     id="metadata15638">
    <rdf:RDF>
      <cc:Work
         rdf:about="">
        <dc:format>image/svg+xml</dc:format>
        <dc:type
           rdf:resource="http://purl.org/dc/dcmitype/StillImage" />
        <dc:title></dc:title>
      </cc:Work>
    </rdf:RDF>
  </metadata>
  <g
     transform="translate(48.02181,-485.73211)"
     id="layer1">
    <g
       transform="matrix(3.3435042,0,0,3.3435042,-1409.5301,-1582.2532)"
       id="g15788">
      <g
         transform="matrix(1.25,0,0,-1.25,432.48349,646.15761)"
         id="g15182">
        <path
           d="m 0,0 c -0.41,-0.41 -0.861,-0.78 -1.333,-1.119 -0.979,0.129 -1.774,0.69 -2.457,1.622 -0.711,0.972 -1.303,2.347 -1.856,4.05 -0.351,1.083 -0.649,2.284 -0.89,3.591 -0.242,1.314 -0.429,2.741 -0.56,4.277 -0.068,0.776 -0.134,1.578 -0.187,2.392 -0.053,0.824 -0.09,1.67 -0.101,2.535 l 0,0.001 -0.002,0.768 c 2.875,-0.033 5.485,-1.214 7.384,-3.112 1.928,-1.927 3.126,-4.582 3.126,-7.501 l 0,-0.005 C 3.124,4.579 1.926,1.926 0,0 m -7.512,-3.121 -0.002,0 c -2.15,0 -4.153,0.65 -5.829,1.758 l 11.662,0 c -1.678,-1.108 -3.68,-1.758 -5.831,-1.758 m -10.636,10.624 0,10e-4 c 0,2.919 1.196,5.574 3.123,7.498 1.903,1.901 4.52,3.086 7.402,3.115 C -7.626,17.146 -7.659,16.152 -7.709,15.232 -7.763,14.283 -7.834,13.355 -7.91,12.46 -8.042,10.917 -8.229,9.479 -8.471,8.16 -8.711,6.846 -9.012,5.641 -9.363,4.553 -9.916,2.85 -10.508,1.475 -11.221,0.503 c -0.686,-0.937 -1.486,-1.499 -2.469,-1.622 -0.474,0.339 -0.923,0.708 -1.335,1.119 -1.927,1.926 -3.123,4.579 -3.123,7.503 m -1.223,11.842 0,-11.758 0,-0.088 0,-0.085 0.005,0 c 0.023,-3.224 1.348,-6.152 3.476,-8.279 2.148,-2.145 5.112,-3.477 8.378,-3.477 l 10e-4,0 c 3.265,0 6.222,1.332 8.361,3.474 2.122,2.13 3.437,5.058 3.462,8.282 l 0.004,0 0,0.089 0,10e-4 0,0.083 0,11.758 -23.687,0 z"
           id="path15184"
           style="fill:#671748;fill-opacity:1;fill-rule:nonzero;stroke:none" />
      </g>
      <g
         transform="matrix(1.25,0,0,-1.25,448.46312,641.11461)"
         id="g15186">
        <path
           d="m 0,0 0.559,-2.469 c 0.133,-0.58 0.256,-1.172 0.356,-1.763 l 0.022,0 c 0.112,0.591 0.291,1.192 0.436,1.752 L 2.089,0 3.206,0 3.886,-2.412 c 0.168,-0.637 0.313,-1.229 0.435,-1.82 l 0.022,0 c 0.079,0.591 0.214,1.183 0.358,1.82 L 5.304,0 6.655,0 4.947,-5.44 l -1.273,0 -0.647,2.21 c -0.169,0.571 -0.292,1.085 -0.413,1.743 l -0.024,0 C 2.468,-2.156 2.334,-2.692 2.178,-3.23 L 1.486,-5.44 0.201,-5.44 -1.407,0 0,0 z"
           id="path15188"
           style="fill:#671748;fill-opacity:1;fill-rule:nonzero;stroke:none" />
      </g>
      <g
         transform="matrix(1.25,0,0,-1.25,459.14262,641.11461)"
         id="g15190">
        <path
           d="m 0,0 0.558,-2.469 c 0.135,-0.58 0.257,-1.172 0.357,-1.763 l 0.023,0 c 0.113,0.591 0.289,1.192 0.435,1.752 L 2.088,0 3.204,0 3.886,-2.412 c 0.168,-0.637 0.312,-1.229 0.435,-1.82 l 0.022,0 c 0.078,0.591 0.212,1.183 0.358,1.82 L 5.304,0 6.656,0 4.948,-5.44 l -1.273,0 -0.649,2.21 c -0.168,0.571 -0.29,1.085 -0.412,1.743 l -0.024,0 C 2.466,-2.156 2.334,-2.692 2.178,-3.23 L 1.486,-5.44 0.2,-5.44 -1.408,0 0,0 z"
           id="path15192"
           style="fill:#671748;fill-opacity:1;fill-rule:nonzero;stroke:none" />
      </g>
      <g
         transform="matrix(1.25,0,0,-1.25,469.82274,641.11461)"
         id="g15194">
        <path
           d="m 0,0 0.557,-2.469 c 0.135,-0.58 0.258,-1.172 0.358,-1.763 l 0.022,0 c 0.112,0.591 0.291,1.192 0.436,1.752 L 2.087,0 3.204,0 3.885,-2.412 c 0.167,-0.637 0.313,-1.229 0.436,-1.82 l 0.022,0 c 0.079,0.591 0.212,1.183 0.357,1.82 L 5.303,0 6.655,0 4.946,-5.44 l -1.274,0 -0.647,2.21 c -0.168,0.571 -0.29,1.085 -0.412,1.743 l -0.023,0 C 2.467,-2.156 2.334,-2.692 2.178,-3.23 L 1.484,-5.44 0.2,-5.44 -1.408,0 0,0 z"
           id="path15196"
           style="fill:#671748;fill-opacity:1;fill-rule:nonzero;stroke:none" />
      </g>
      <g
         transform="matrix(1.25,0,0,-1.25,478.42212,646.96286)"
         id="g15198">
        <path
           d="M 0,0 C 0,0.512 0.358,0.88 0.849,0.88 1.351,0.88 1.697,0.521 1.697,0 1.697,-0.504 1.363,-0.885 0.836,-0.885 0.346,-0.885 0,-0.504 0,0"
           id="path15200"
           style="fill:#671748;fill-opacity:1;fill-rule:nonzero;stroke:none" />
      </g>
      <g
         transform="matrix(1.25,0,0,-1.25,483.89187,639.37161)"
         id="g15202">
        <path
           d="m 0,0 0,-1.394 1.308,0 0,-1.028 -1.308,0 0,-2.401 c 0,-0.67 0.179,-1.007 0.705,-1.007 0.247,0 0.38,0.011 0.535,0.057 l 0.022,-1.04 c -0.2,-0.077 -0.57,-0.145 -0.993,-0.145 -0.514,0 -0.927,0.17 -1.183,0.449 -0.303,0.311 -0.437,0.814 -0.437,1.529 l 0,2.558 -0.769,0 0,1.028 0.769,0 0,1.015 L 0,0 z"
           id="path15204"
           style="fill:#671748;fill-opacity:1;fill-rule:nonzero;stroke:none" />
      </g>
      <g
         transform="matrix(1.25,0,0,-1.25,492.91062,645.87736)"
         id="g15206">
        <path
           d="m 0,0 c 0,-0.647 0.023,-1.181 0.045,-1.63 l -1.196,0 -0.066,0.815 -0.035,0 c -0.233,-0.379 -0.769,-0.938 -1.753,-0.938 -0.98,0 -1.886,0.593 -1.886,2.368 l 0,3.195 1.374,0 0,-2.961 c 0,-0.905 0.29,-1.485 1.016,-1.485 0.559,0 0.916,0.38 1.05,0.739 0.056,0.111 0.078,0.266 0.078,0.423 l 0,3.284 L 0,3.81 0,0 z"
           id="path15208"
           style="fill:#671748;fill-opacity:1;fill-rule:nonzero;stroke:none" />
      </g>
      <path
         d="m 494.76812,638.00186 1.7175,0 0,9.91375 -1.7175,0 0,-9.91375 z"
         id="path15210"
         style="fill:#671748;fill-opacity:1;fill-rule:nonzero;stroke:none" />
      <g
         transform="matrix(1.25,0,0,-1.25,498.00737,646.96286)"
         id="g15212">
        <path
           d="M 0,0 C 0,0.512 0.357,0.88 0.847,0.88 1.35,0.88 1.697,0.521 1.697,0 1.697,-0.504 1.362,-0.885 0.835,-0.885 0.345,-0.885 0,-0.504 0,0"
           id="path15214"
           style="fill:#671748;fill-opacity:1;fill-rule:nonzero;stroke:none" />
      </g>
      <g
         transform="matrix(1.25,0,0,-1.25,506.50587,647.70598)"
         id="g15216">
        <path
           d="m 0,0 c -0.289,-0.132 -0.858,-0.279 -1.541,-0.279 -1.695,0 -2.802,1.095 -2.802,2.782 0,1.631 1.118,2.894 3.027,2.894 0.502,0 1.018,-0.115 1.328,-0.248 l -0.247,-1.04 c -0.221,0.114 -0.545,0.212 -1.037,0.212 -1.049,0 -1.675,-0.769 -1.664,-1.762 0,-1.117 0.727,-1.754 1.664,-1.754 0.47,0 0.816,0.099 1.083,0.213 L 0,0 z"
           id="path15218"
           style="fill:#671748;fill-opacity:1;fill-rule:nonzero;stroke:none" />
      </g>
      <g
         transform="matrix(1.25,0,0,-1.25,507.13612,646.92348)"
         id="g15220">
        <path
           d="m 0,0 2.044,2.613 c 0.279,0.335 0.512,0.603 0.792,0.916 l 0,0.022 -2.634,0 0,1.096 4.311,0 0,-0.839 L 2.524,1.252 C 2.255,0.927 1.999,0.616 1.719,0.323 l 0,-0.021 2.861,0 0,-1.095 -4.58,0 L 0,0 z"
           id="path15222"
           style="fill:#671748;fill-opacity:1;fill-rule:nonzero;stroke:none" />
      </g>
      <g
         transform="matrix(1.25,0,0,-1.25,450.029,623.16748)"
         id="g15224">
        <path
           d="m 0,0 -2.653,0 0,0.943 6.456,0 0,-0.943 -2.667,0 0,-7.628 L 0,-7.628 0,0 z"
           id="path15226"
           style="fill:#000000;fill-opacity:1;fill-rule:nonzero;stroke:none" />
      </g>
      <g
         transform="matrix(1.25,0,0,-1.25,461.62375,627.68161)"
         id="g15228">
        <path
           d="m 0,0 -3.377,0 0,-3.091 3.776,0 0,-0.926 -4.917,0 0,8.572 4.722,0 0,-0.931 -3.581,0 0,-2.708 L 0,0.916 0,0 z"
           id="path15230"
           style="fill:#000000;fill-opacity:1;fill-rule:nonzero;stroke:none" />
      </g>
      <g
         transform="matrix(1.25,0,0,-1.25,471.54887,632.37111)"
         id="g15232">
        <path
           d="m 0,0 c -0.4,-0.203 -1.24,-0.407 -2.304,-0.407 -2.457,0 -4.296,1.528 -4.296,4.35 0,2.696 1.852,4.505 4.558,4.505 1.072,0 1.772,-0.23 2.069,-0.383 L -0.259,7.16 c -0.413,0.203 -1.022,0.358 -1.748,0.358 -2.04,0 -3.401,-1.286 -3.401,-3.537 0,-2.112 1.23,-3.448 3.338,-3.448 0.697,0 1.398,0.141 1.851,0.358 L 0,0 z"
           id="path15234"
           style="fill:#000000;fill-opacity:1;fill-rule:nonzero;stroke:none" />
      </g>
      <g
         transform="matrix(1.25,0,0,-1.25,474.73299,621.98836)"
         id="g15236">
        <path
           d="m 0,0 0,-3.589 4.218,0 0,3.589 1.139,0 0,-8.571 -1.139,0 0,4.016 -4.218,0 0,-4.016 -1.137,0 0,8.571 L 0,0 z"
           id="path15238"
           style="fill:#000000;fill-opacity:1;fill-rule:nonzero;stroke:none" />
      </g>
      <g
         transform="matrix(1.25,0,0,-1.25,483.86837,632.70248)"
         id="g15240">
        <path
           d="m 0,0 0,8.571 1.243,0 2.779,-4.338 C 4.657,3.229 5.175,2.323 5.577,1.449 L 5.614,1.462 C 5.512,2.604 5.487,3.647 5.487,4.982 l 0,3.589 1.06,0 L 6.547,0 5.408,0 2.64,4.349 C 2.031,5.303 1.448,6.281 1.025,7.212 L 0.982,7.196 C 1.049,6.118 1.06,5.085 1.06,3.663 L 1.06,0 0,0 z"
           id="path15242"
           style="fill:#000000;fill-opacity:1;fill-rule:nonzero;stroke:none" />
      </g>
      <path
         d="m 495.91687,632.70186 -1.42375,0 0,-10.71375 1.42375,0 0,10.71375 z"
         id="path15244"
         style="fill:#000000;fill-opacity:1;fill-rule:nonzero;stroke:none" />
      <g
         transform="matrix(1.25,0,0,-1.25,505.97387,632.37111)"
         id="g15246">
        <path
           d="m 0,0 c -0.401,-0.203 -1.243,-0.407 -2.302,-0.407 -2.461,0 -4.299,1.528 -4.299,4.35 0,2.696 1.852,4.505 4.555,4.505 1.074,0 1.773,-0.23 2.071,-0.383 L -0.26,7.16 c -0.414,0.203 -1.019,0.358 -1.747,0.358 -2.043,0 -3.402,-1.286 -3.402,-3.537 0,-2.112 1.23,-3.448 3.338,-3.448 0.699,0 1.397,0.141 1.85,0.358 L 0,0 z"
           id="path15248"
           style="fill:#000000;fill-opacity:1;fill-rule:nonzero;stroke:none" />
      </g>
      <g
         transform="matrix(1.25,0,0,-1.25,507.75074,621.98836)"
         id="g15250">
        <path
           d="m 0,0 1.125,0 0,-4.134 0.039,0 c 0.232,0.329 0.467,0.635 0.686,0.913 L 4.515,0 5.911,0 2.756,-3.639 l 3.402,-4.932 -1.331,0 -2.862,4.208 -0.84,-0.944 0,-3.264 L 0,-8.571 0,0 z"
           id="path15252"
           style="fill:#000000;fill-opacity:1;fill-rule:nonzero;stroke:none" />
      </g>
      <g
         transform="matrix(1.25,0,0,-1.25,522.78824,619.55586)"
         id="g15254">
        <path
           d="m 0,0 -1.656,-1.487 -0.919,0 L -1.372,0 0,0 z m -0.608,-6.958 -0.866,2.47 c -0.196,0.557 -0.325,1.068 -0.453,1.563 l -0.027,0 c -0.128,-0.495 -0.257,-1.03 -0.44,-1.553 l -0.853,-2.48 2.639,0 z m -2.873,-0.863 -0.906,-2.696 -1.161,0 2.973,8.571 1.346,0 2.976,-8.571 -1.203,0 -0.934,2.696 -3.091,0 z"
           id="path15256"
           style="fill:#000000;fill-opacity:1;fill-rule:nonzero;stroke:none" />
      </g>
      <g
         transform="matrix(1.25,0,0,-1.25,531.40562,621.98836)"
         id="g15258">
        <path
           d="m 0,0 0,-5.09 c 0,-1.907 0.867,-2.719 2.032,-2.719 1.28,0 2.121,0.839 2.121,2.719 l 0,5.09 1.137,0 0,-5.012 c 0,-2.634 -1.408,-3.701 -3.297,-3.701 -1.786,0 -3.133,0.992 -3.133,3.662 L -1.14,0 0,0 z"
           id="path15260"
           style="fill:#000000;fill-opacity:1;fill-rule:nonzero;stroke:none" />
      </g>
      <g
         transform="matrix(1.25,0,0,-1.25,540.45836,632.70248)"
         id="g15262">
        <path
           d="m 0,0 0,8.571 1.243,0 2.781,-4.338 C 4.66,3.229 5.176,2.323 5.575,1.449 l 0.042,0.013 c -0.105,1.142 -0.13,2.185 -0.13,3.52 l 0,3.589 1.059,0 L 6.546,0 5.409,0 2.638,4.349 C 2.033,5.303 1.449,6.281 1.022,7.212 L 0.983,7.196 C 1.049,6.118 1.063,5.085 1.063,3.663 L 1.063,0 0,0 z"
           id="path15264"
           style="fill:#000000;fill-opacity:1;fill-rule:nonzero;stroke:none" />
      </g>
      <path
         d="m 552.50686,632.70186 -1.42375,0 0,-10.71375 1.42375,0 0,10.71375 z"
         id="path15266"
         style="fill:#000000;fill-opacity:1;fill-rule:nonzero;stroke:none" />
      <g
         transform="matrix(1.25,0,0,-1.25,557.35374,632.70248)"
         id="g15268">
        <path
           d="m 0,0 -2.857,8.571 1.228,0 1.362,-4.222 C 0.093,3.19 0.415,2.147 0.664,1.142 l 0.023,0 c 0.245,0.992 0.596,2.075 0.994,3.192 l 1.478,4.237 1.205,0 L 1.244,0 0,0 z"
           id="path15270"
           style="fill:#000000;fill-opacity:1;fill-rule:nonzero;stroke:none" />
      </g>
      <g
         transform="matrix(1.25,0,0,-1.25,569.61061,627.68161)"
         id="g15272">
        <path
           d="m 0,0 -3.377,0 0,-3.091 3.781,0 0,-0.926 -4.914,0 0,8.572 4.72,0 0,-0.931 -3.587,0 0,-2.708 L 0,0.916 0,0 z"
           id="path15274"
           style="fill:#000000;fill-opacity:1;fill-rule:nonzero;stroke:none" />
      </g>
      <g
         transform="matrix(1.25,0,0,-1.25,573.34661,627.01286)"
         id="g15276">
        <path
           d="M 0,0 1.154,0 C 2.355,0 3.12,0.647 3.12,1.628 3.12,2.737 2.308,3.22 1.116,3.22 0.57,3.22 0.192,3.179 0,3.129 L 0,0 z m -1.126,3.906 c 0.568,0.101 1.4,0.176 2.164,0.176 1.203,0 1.992,-0.227 2.52,-0.698 0.431,-0.382 0.684,-0.966 0.684,-1.642 0,-1.12 -0.722,-1.87 -1.625,-2.174 l 0,-0.041 C 3.275,-0.699 3.678,-1.312 3.882,-2.2 4.17,-3.395 4.373,-4.225 4.557,-4.552 l -1.168,0 c -0.144,0.254 -0.333,0.98 -0.568,2.046 -0.259,1.183 -0.736,1.627 -1.762,1.665 l -1.059,0 0,-3.711 -1.126,0 0,8.458 z"
           id="path15278"
           style="fill:#000000;fill-opacity:1;fill-rule:nonzero;stroke:none" />
      </g>
      <g
         transform="matrix(1.25,0,0,-1.25,579.89786,631.89611)"
         id="g15280">
        <path
           d="m 0,0 4.826,6.959 0,0.037 -4.413,0 0,0.93 5.889,0 0,-0.673 -4.813,-6.934 0,-0.039 4.876,0 0,-0.925 L 0,-0.645 0,0 z"
           id="path15282"
           style="fill:#000000;fill-opacity:1;fill-rule:nonzero;stroke:none" />
      </g>
      <path
         d="m 590.98811,632.70186 -1.41625,0 0,-10.71375 1.41625,0 0,10.71375 z"
         id="path15284"
         style="fill:#000000;fill-opacity:1;fill-rule:nonzero;stroke:none" />
      <g
         transform="matrix(1.25,0,0,-1.25,595.51448,623.16748)"
         id="g15286">
        <path
           d="m 0,0 -2.649,0 0,0.943 6.452,0 0,-0.943 -2.661,0 0,-7.628 L 0,-7.628 0,0 z"
           id="path15288"
           style="fill:#000000;fill-opacity:1;fill-rule:nonzero;stroke:none" />
      </g>
      <g
         transform="matrix(1.25,0,0,-1.25,605.62424,628.25311)"
         id="g15290">
        <path
           d="m 0,0 -0.867,2.47 c -0.196,0.557 -0.325,1.068 -0.455,1.563 l -0.028,0 C -1.48,3.538 -1.605,3.003 -1.787,2.48 L -2.641,0 0,0 z m -2.874,-0.863 -0.907,-2.696 -1.161,0 2.971,8.571 1.352,0 2.972,-8.571 -1.205,0 -0.931,2.696 -3.091,0 z"
           id="path15292"
           style="fill:#000000;fill-opacity:1;fill-rule:nonzero;stroke:none" />
      </g>
      <g
         transform="matrix(1.25,0,0,-1.25,615.40274,632.70248)"
         id="g15294">
        <path
           d="m 0,0 -2.858,8.571 1.232,0 1.356,-4.222 C 0.092,3.19 0.415,2.147 0.662,1.142 l 0.024,0 c 0.248,0.992 0.596,2.075 0.998,3.192 l 1.474,4.237 1.205,0 L 1.244,0 0,0 z"
           id="path15296"
           style="fill:#000000;fill-opacity:1;fill-rule:nonzero;stroke:none" />
      </g>
      <g
         transform="matrix(1.25,0,0,-1.25,625.44624,621.98836)"
         id="g15298">
        <path
           d="m 0,0 1.14,0 0,-7.646 3.726,0 0,-0.925 L 0,-8.571 0,0 z"
           id="path15300"
           style="fill:#000000;fill-opacity:1;fill-rule:nonzero;stroke:none" />
      </g>
      <path
         d="m 634.50312,632.70186 -1.425,0 0,-10.71375 1.425,0 0,10.71375 z"
         id="path15302"
         style="fill:#000000;fill-opacity:1;fill-rule:nonzero;stroke:none" />
      <g
         transform="matrix(1.25,0,0,-1.25,638.36399,631.65461)"
         id="g15304">
        <path
           d="m 0,0 c 0.233,-0.04 0.546,-0.052 0.945,-0.052 1.16,0 2.236,0.418 2.236,1.665 0,1.159 -1.018,1.654 -2.251,1.654 L 0,3.267 0,0 z m 0,4.094 1.025,0 c 1.174,0 1.875,0.624 1.875,1.451 0,0.993 -0.764,1.4 -1.906,1.4 C 0.481,6.945 0.181,6.907 0,6.868 L 0,4.094 z m -1.126,3.511 c 0.49,0.116 1.284,0.191 2.056,0.191 1.126,0 1.855,-0.191 2.381,-0.623 C 3.765,6.842 4.047,6.333 4.047,5.659 4.047,4.82 3.479,4.094 2.575,3.776 l 0,-0.038 C 3.404,3.546 4.374,2.873 4.374,1.602 4.374,0.863 4.075,0.292 3.622,-0.114 3.031,-0.665 2.042,-0.918 0.62,-0.918 c -0.774,0 -1.371,0.053 -1.746,0.103 l 0,8.42 z"
           id="path15306"
           style="fill:#000000;fill-opacity:1;fill-rule:nonzero;stroke:none" />
      </g>
      <g
         transform="matrix(1.25,0,0,-1.25,651.34999,627.68161)"
         id="g15308">
        <path
           d="m 0,0 -3.376,0 0,-3.091 3.775,0 0,-0.926 -4.917,0 0,8.572 4.726,0 0,-0.931 -3.584,0 0,-2.708 L 0,0.916 0,0 z"
           id="path15310"
           style="fill:#000000;fill-opacity:1;fill-rule:nonzero;stroke:none" />
      </g>
      <g
         transform="matrix(1.25,0,0,-1.25,655.08623,627.01286)"
         id="g15312">
        <path
           d="M 0,0 1.15,0 C 2.351,0 3.116,0.647 3.116,1.628 3.116,2.737 2.301,3.22 1.11,3.22 0.568,3.22 0.193,3.179 0,3.129 L 0,0 z m -1.127,3.906 c 0.571,0.101 1.4,0.176 2.16,0.176 1.204,0 1.989,-0.227 2.523,-0.698 0.427,-0.382 0.686,-0.966 0.686,-1.642 0,-1.12 -0.722,-1.87 -1.631,-2.174 l 0,-0.041 C 3.271,-0.699 3.672,-1.312 3.88,-2.2 4.163,-3.395 4.372,-4.225 4.551,-4.552 l -1.162,0 c -0.142,0.254 -0.34,0.98 -0.571,2.046 -0.258,1.183 -0.733,1.627 -1.759,1.665 l -1.059,0 0,-3.711 -1.127,0 0,8.458 z"
           id="path15314"
           style="fill:#000000;fill-opacity:1;fill-rule:nonzero;stroke:none" />
      </g>
      <g
         transform="matrix(1.25,0,0,-1.25,670.02636,632.37111)"
         id="g15316">
        <path
           d="m 0,0 c -0.401,-0.203 -1.246,-0.407 -2.306,-0.407 -2.454,0 -4.295,1.528 -4.295,4.35 0,2.696 1.856,4.505 4.555,4.505 1.075,0 1.774,-0.23 2.072,-0.383 L -0.257,7.16 c -0.418,0.203 -1.025,0.358 -1.746,0.358 -2.049,0 -3.405,-1.286 -3.405,-3.537 0,-2.112 1.228,-3.448 3.339,-3.448 0.695,0 1.394,0.141 1.849,0.358 L 0,0 z"
           id="path15318"
           style="fill:#000000;fill-opacity:1;fill-rule:nonzero;stroke:none" />
      </g>
      <path
         d="m 673.20937,632.70186 -1.4225,0 0,-10.71375 1.4225,0 0,10.71375 z"
         id="path15320"
         style="fill:#000000;fill-opacity:1;fill-rule:nonzero;stroke:none" />
      <path
         d="m 673.20937,647.96061 -8.8825,0 0,-8.8825 8.8825,0 0,8.8825 z"
         id="path15322"
         style="fill:#671748;fill-opacity:1;fill-rule:nonzero;stroke:none" />
    </g>
  </g>
</svg>
