<?xml version="1.0" encoding="UTF-8"?>
<!DOCTYPE svg PUBLIC "-//W3C//DTD SVG 1.1//EN" "http://www.w3.org/Graphics/SVG/1.1/DTD/svg11.dtd">
<svg xmlns="http://www.w3.org/2000/svg" xml:space="preserve" width="61.736mm" height="46.9194mm" version="1.1"
     style="shape-rendering:geometricPrecision; text-rendering:geometricPrecision; image-rendering:optimizeQuality; fill-rule:evenodd; clip-rule:evenodd"
     viewBox="0 0 6174 4692"
>
 <defs>
  <style type="text/css">
   <![CDATA[
    .fil0 {fill:#2B2A29;fill-rule:nonzero}
    .fil1 {fill:#00863F;fill-rule:nonzero}
    .fil2 {fill:#006E38;fill-rule:nonzero}
    .fil3 {fill:#254287;fill-rule:nonzero}
    .fil4 {fill:#302C69;fill-rule:nonzero}
   ]]>
  </style>
 </defs>
 <g id="Ebene_x0020_1">
  <metadata id="CorelCorpID_0Corel-Layer"/>
  <path class="fil0" d="M5343 3858c0,80 15,137 48,137 33,0 46,-57 46,-137 0,-79 -13,-138 -46,-138 -33,0 -48,57 -48,138zm135 -1c0,122 -40,172 -90,172 -53,0 -86,-62 -86,-171 0,-112 35,-172 91,-172 56,0 85,65 85,171zm-392 167l0 -25 29 -39c40,-55 89,-117 89,-180 0,-37 -17,-60 -49,-60 -25,0 -41,13 -50,19l-10 -30c12,-10 36,-23 67,-23 57,0 82,42 82,92 0,63 -42,123 -84,180l-24 30 0 1 115 0 0 35 -165 0zm-192 -166c0,80 14,137 48,137 32,0 45,-57 45,-137 0,-79 -13,-138 -46,-138 -33,0 -47,57 -47,138zm134 -1c0,122 -40,172 -89,172 -54,0 -86,-62 -86,-171 0,-112 34,-172 90,-172 56,0 85,65 85,171zm-403 167l0 -25 29 -39c41,-55 90,-117 90,-180 0,-37 -17,-60 -49,-60 -25,0 -41,13 -50,19l-10 -30c12,-10 36,-23 67,-23 57,0 82,42 82,92 0,63 -42,123 -85,180l-23 30 0 1 115 0 0 35 -166 0zm-80 -183l0 29 -233 0 0 -29 233 0zm-429 59l0 -94c0,-23 1,-44 3,-66l-2 0c-12,27 -19,43 -29,63l-48 96 0 1 76 0zm0 124l0 -91 -115 0 0 -27 112 -215 40 0 0 209 37 0 0 33 -37 0 0 91 -37 0zm-255 -293l-1 0 -57 32 -8 -31 73 -41 34 0 0 333 -41 0 0 -293zm-285 127c0,80 14,137 48,137 33,0 46,-57 46,-137 0,-79 -13,-138 -46,-138 -33,0 -48,57 -48,138zm135 -1c0,122 -40,172 -90,172 -53,0 -86,-62 -86,-171 0,-112 35,-172 91,-172 55,0 85,65 85,171zm-403 167l0 -25 29 -39c41,-55 89,-117 89,-180 0,-37 -17,-60 -49,-60 -25,0 -41,13 -50,19l-10 -30c13,-10 36,-23 68,-23 57,0 82,42 82,92 0,63 -43,123 -85,180l-23 30 0 1 114 0 0 35 -165 0zm-340 21l110 -371 30 0 -111 371 -29 0zm-258 -156l-18 -88c-5,-25 -9,-53 -13,-79l-2 0c-5,26 -10,56 -14,79l-18 88 65 0zm-71 32l-23 103 -38 0 79 -346 44 0 77 346 -39 0 -23 -103 -77 0zm-303 103l-79 -346 43 0 33 163c9,39 19,88 25,133l2 0c5,-45 14,-93 23,-134l33 -162 42 0 -81 346 -41 0zm-277 -162c0,-7 -1,-13 -2,-18 -5,-17 -14,-38 -36,-38 -29,0 -45,38 -45,93 0,64 20,93 45,93 11,0 27,-6 35,-36 2,-8 3,-15 3,-22l0 -72zm39 131c0,65 -9,89 -25,107 -15,17 -39,27 -66,27 -21,0 -42,-5 -55,-12l10 -31c9,5 26,11 46,11 31,0 51,-20 51,-76l0 -25 -1 0c-9,19 -27,30 -48,30 -44,0 -73,-50 -73,-123 0,-91 41,-129 78,-129 27,0 39,17 46,32l1 0 2 -28 36 0c-1,17 -2,39 -2,77l0 140zm-257 -119c1,-49 -18,-71 -37,-71 -25,0 -39,38 -40,71l77 0zm-78 30c1,76 31,92 59,92 17,0 32,-4 41,-10l7 30c-14,7 -35,11 -55,11 -59,0 -90,-48 -90,-124 0,-81 34,-131 83,-131 51,0 71,53 71,110 0,9 0,16 0,22l-116 0zm-174 -64c0,-21 -1,-46 -2,-64l36 0 2 39 1 0c8,-24 29,-43 52,-43 3,0 6,0 8,0l0 41c-2,-1 -5,-1 -8,-1 -25,0 -44,23 -48,52 -1,7 -1,15 -1,23l0 137 -40 0 0 -184zm-153 0c0,-21 -2,-46 -2,-64l35 0 2 39 2 0c8,-24 29,-43 52,-43 3,0 6,0 8,0l0 41c-2,-1 -5,-1 -8,-1 -25,0 -44,23 -48,52 -1,7 -1,15 -1,23l0 137 -40 0 0 -184zm-106 34c1,-49 -18,-71 -37,-71 -25,0 -39,38 -40,71l77 0zm-78 30c1,76 30,92 59,92 17,0 32,-4 41,-10l6 30c-13,7 -34,11 -54,11 -60,0 -90,-48 -90,-124 0,-81 34,-131 83,-131 51,0 71,53 71,110 0,9 0,16 0,22l-116 0zm-132 -186l0 58 48 0 0 30 -48 0 0 148c0,32 12,41 26,41 6,0 12,-1 16,-2l2 30c-7,3 -17,4 -30,4 -15,0 -29,-4 -39,-14 -9,-12 -14,-29 -14,-63l0 -144 -31 0 0 -30 31 0 0 -42 39 -16zm-279 122c0,-29 -1,-44 -2,-64l35 0 2 30 1 0c10,-20 30,-34 57,-34 34,0 60,25 60,86l0 166 -40 0 0 -160c0,-29 -5,-59 -34,-59 -17,0 -33,14 -38,41 -1,6 -1,14 -1,22l0 156 -40 0 0 -184zm-85 -162l0 346 -40 0 0 -346 40 0zm4761 -266c-14,0 -25,-12 -25,-30 0,-17 11,-30 26,-30 16,0 26,12 26,30 0,18 -10,30 -26,30l-1 0zm-136 -188c0,-21 -1,-46 -2,-65l35 0 3 39 1 0c8,-23 29,-43 52,-43 3,0 6,1 8,1l0 40c-2,0 -5,0 -8,0 -25,0 -44,23 -48,52 -1,6 -1,14 -1,22l0 138 -40 0 0 -184zm-107 56c-20,0 -68,3 -68,57 0,32 16,44 30,44 18,0 33,-13 37,-37 1,-5 1,-10 1,-14l0 -50zm39 72c0,19 0,40 3,56l-36 0 -3 -26 -1 0c-11,19 -29,30 -50,30 -33,0 -59,-28 -59,-71 0,-62 50,-90 106,-90l0 -8c0,-33 -8,-56 -39,-56 -16,0 -30,5 -41,12l-9 -27c10,-8 33,-17 58,-17 50,0 71,33 71,89l0 108zm-310 -32c0,6 0,11 2,16 9,37 26,43 37,43 31,0 43,-43 43,-96 0,-50 -12,-94 -44,-94 -19,0 -34,23 -37,44 -1,6 -1,12 -1,18l0 69zm-40 -267l40 0 0 136 1 0c13,-25 31,-34 52,-34 39,0 68,45 68,126 0,90 -37,131 -75,131 -27,0 -40,-15 -50,-36l-1 0 -3 32 -34 0c1,-14 2,-43 2,-60l0 -295zm-220 0l40 0 0 133 1 0c5,-9 13,-16 20,-21 9,-6 19,-10 34,-10 31,0 58,26 58,88l0 165 -40 0 0 -160c0,-31 -7,-59 -33,-59 -19,0 -33,13 -39,39 -1,6 -1,13 -1,19l0 161 -40 0 0 -355zm-47 349c-8,5 -23,9 -41,9 -54,0 -91,-44 -91,-126 0,-71 36,-129 98,-129 14,0 28,3 35,8l-7 32c-5,-3 -16,-7 -29,-7 -39,0 -57,47 -57,96 0,58 22,93 58,93 11,0 20,-2 29,-6l5 30zm-228 -122c-21,0 -69,3 -69,57 0,32 17,44 31,44 17,0 32,-13 37,-37 1,-5 1,-10 1,-14l0 -50zm39 72c0,19 0,40 2,56l-36 0 -2 -26 -2 0c-10,19 -28,30 -49,30 -33,0 -59,-28 -59,-71 0,-62 50,-90 106,-90l0 -8c0,-33 -8,-56 -40,-56 -15,0 -29,5 -41,12l-9 -27c11,-8 34,-17 58,-17 50,0 72,33 72,89l0 108zm-380 56l0 -346 37 0 64 162c14,37 32,83 44,121l1 0c-3,-55 -5,-99 -5,-159l0 -124 36 0 0 346 -38 0 -65 -166c-14,-35 -29,-75 -41,-118l-1 0c3,46 4,90 4,164l0 120 -36 0zm-278 -124c0,41 7,97 43,97 34,0 41,-59 41,-97 0,-38 -7,-97 -42,-97 -35,0 -42,59 -42,97zm124 0c0,96 -45,128 -83,128 -44,0 -80,-40 -80,-128 0,-91 40,-129 83,-129 44,0 80,42 80,129zm-263 -231l39 0 0 355 -39 0 0 -355zm-111 0l39 0 0 355 -39 0 0 -355zm-108 227c-20,0 -68,3 -68,57 0,32 16,44 30,44 18,0 33,-13 37,-37 1,-5 1,-10 1,-14l0 -50zm39 72c0,19 0,40 3,56l-36 0 -3 -26 -1 0c-11,19 -28,30 -50,30 -33,0 -59,-28 -59,-71 0,-62 50,-90 106,-90l0 -8c0,-33 -8,-56 -39,-56 -16,0 -30,5 -41,12l-9 -27c10,-8 33,-17 58,-17 50,0 71,33 71,89l0 108zm-339 -290l0 148 97 0 0 -148 39 0 0 346 -39 0 0 -162 -97 0 0 162 -40 0 0 -346 40 0zm-236 350c-14,0 -26,-12 -26,-30 0,-17 12,-30 26,-30 16,0 27,12 27,30 0,18 -10,30 -27,30l0 0zm-111 -154c1,-50 -18,-72 -37,-72 -26,0 -40,38 -41,72l78 0zm-79 29c1,76 31,93 59,93 17,0 32,-4 42,-10l6 29c-14,8 -35,12 -55,12 -59,0 -90,-49 -90,-125 0,-80 34,-131 84,-131 50,0 71,54 71,110 0,9 0,16 -1,22l-116 0zm-135 -33c0,-5 0,-11 0,-17 -3,-25 -18,-48 -37,-48 -33,0 -44,46 -44,96 0,52 13,94 42,94 12,0 29,-6 38,-42 1,-5 1,-11 1,-17l0 -66zm39 -201l0 295c0,17 2,46 2,60l-34 0 -2 -31 -2 0c-8,18 -25,35 -51,35 -43,0 -73,-46 -73,-127 0,-89 37,-130 75,-130 18,0 36,9 45,30l1 0 0 -132 39 0zm-243 205c1,-50 -18,-72 -37,-72 -25,0 -39,38 -40,72l77 0zm-78 29c1,76 31,93 59,93 17,0 32,-4 42,-10l6 29c-14,8 -35,12 -55,12 -59,0 -90,-49 -90,-125 0,-80 34,-131 84,-131 50,0 70,54 70,110 0,9 0,16 0,22l-116 0zm-195 80c8,6 24,13 40,13 22,0 36,-14 36,-36 0,-19 -7,-32 -32,-49 -32,-21 -50,-42 -50,-71 0,-40 30,-69 69,-69 19,0 34,7 44,13l-10 30c-10,-6 -20,-11 -33,-11 -22,0 -33,16 -33,31 0,17 7,27 31,44 29,18 52,41 52,75 0,50 -34,74 -75,74 -18,0 -38,-6 -49,-14l10 -30zm-62 -27c0,28 1,50 2,68l-34 0 -3 -26 -1 0c-8,12 -27,30 -53,30 -44,0 -61,-34 -61,-95l0 -158 40 0 0 152c0,39 6,68 33,68 23,0 33,-22 35,-33 2,-7 2,-15 2,-23l0 -164 40 0 0 181zm-330 -56c0,41 7,97 43,97 34,0 41,-59 41,-97 0,-38 -7,-97 -42,-97 -35,0 -42,59 -42,97zm124 0c0,96 -45,128 -83,128 -44,0 -80,-40 -80,-128 0,-91 40,-129 83,-129 44,0 80,42 80,129zm-321 83c9,6 25,13 41,13 22,0 36,-14 36,-36 0,-19 -7,-32 -32,-49 -32,-21 -50,-42 -50,-71 0,-40 30,-69 69,-69 19,0 34,7 44,13l-10 30c-10,-6 -20,-11 -33,-11 -22,0 -33,16 -33,31 0,17 6,27 31,44 29,18 51,41 51,75 0,50 -33,74 -74,74 -18,0 -38,-6 -49,-14l9 -30zm-150 -272c0,16 -9,26 -24,26 -13,0 -23,-10 -22,-26 -1,-15 9,-25 23,-25 14,0 23,10 23,25zm-88 384c11,-3 25,-7 34,-19 8,-13 11,-32 11,-79l0 -222 40 0 0 233c0,52 -8,77 -25,95 -15,15 -39,23 -55,24l-5 -32zm-139 -195c0,41 8,97 44,97 33,0 40,-59 40,-97 0,-38 -7,-97 -41,-97 -36,0 -43,59 -43,97zm124 0c0,96 -44,128 -82,128 -45,0 -81,-40 -81,-128 0,-91 40,-129 83,-129 44,0 80,42 80,129zm-373 -231l39 0 0 133 1 0c6,-9 13,-16 21,-21 9,-6 19,-10 33,-10 32,0 58,26 58,88l0 165 -39 0 0 -160c0,-31 -7,-59 -34,-59 -18,0 -32,13 -38,39 -1,6 -2,13 -2,19l0 161 -39 0 0 -355zm-119 219l-18 -87c-5,-25 -10,-54 -14,-79l-2 0c-4,26 -9,56 -14,79l-18 87 66 0zm-71 32l-23 104 -38 0 79 -346 43 0 77 346 -39 0 -23 -104 -76 0z"/>
  <path class="fil1" d="M3299 994l-342 -343 -343 343 -343 343 -343 342 343 343 343 -343 343 -342 342 342 343 -342 -343 -343zm-2069 1061l0 -893 159 0 138 350c26,68 70,182 95,260l3 0c-5,-94 -17,-248 -17,-413l0 -197 152 0 0 893 -159 0 -136 -339c-30,-76 -71,-189 -90,-269l-3 0c4,90 10,227 10,408l0 200 -152 0zm-533 -178c36,20 97,35 147,35 82,0 122,-43 122,-101 0,-65 -40,-97 -115,-146 -122,-74 -168,-168 -168,-249 0,-143 95,-262 282,-262 58,0 114,16 140,32l-28 149c-25,-15 -63,-30 -114,-30 -74,0 -109,45 -109,93 0,53 26,80 123,139 118,71 161,161 161,255 0,163 -120,271 -295,271 -72,0 -142,-19 -171,-36l25 -150z"/>
  <polygon class="fil2" points="3299,1679 2957,1337 2271,2022 2950,1110 3232,1394 "/>
  <path class="fil3" d="M3982 1165l-343 343 -343 343 -343 -343 -342 343 342 342 343 343 343 -343 343 -342 343 -343 -343 -343zm1041 791l282 -636 0 -4 -256 0 0 -151 452 0 0 128 -270 610 0 4 269 0 0 151 -477 0 0 -102zm-63 85c-25,12 -74,22 -135,22 -227,0 -336,-189 -336,-442 0,-336 187,-467 360,-467 61,0 104,12 121,24l-29 145c-20,-9 -43,-17 -81,-17 -98,0 -187,85 -187,306 0,213 81,297 187,297 29,0 62,-7 83,-13l17 145z"/>
  <polygon class="fil4" points="3982,1165 3296,2536 4325,1508 "/>
 </g>
</svg>
